<svg width="198" height="101" viewBox="0 0 198 101" fill="none" xmlns="http://www.w3.org/2000/svg">
<path d="M97.0688 60.4984C102.698 33.4876 85.7933 6.93675 59.3121 1.19543C32.831 -4.54589 6.80072 12.6964 1.17198 39.7072C-4.45677 66.718 12.4475 93.2689 38.9286 99.0102C65.4098 104.751 91.44 87.5092 97.0688 60.4984Z" fill="url(#paint0_linear)"/>
<path d="M36.8161 62.9748C37.3565 60.3817 35.7337 57.8329 33.1915 57.2817C30.6493 56.7305 28.1504 58.3858 27.6101 60.9788C27.0697 63.5719 28.6925 66.1207 31.2347 66.6719C33.7769 67.2231 36.2758 65.5678 36.8161 62.9748Z" fill="#894A00"/>
<path d="M31.3699 48.708C31.9103 46.1149 30.2875 43.5661 27.7453 43.0149C25.2031 42.4637 22.7042 44.119 22.1638 46.712C21.6235 49.3051 23.2463 51.8539 25.7885 52.4051C28.3306 52.9563 30.8295 51.301 31.3699 48.708Z" fill="#894A00"/>
<path d="M61.3454 89.5576C61.8858 86.9645 60.263 84.4157 57.7208 83.8645C55.1786 83.3133 52.6797 84.9686 52.1393 87.5616C51.599 90.1547 53.2218 92.7036 55.764 93.2547C58.3061 93.8059 60.805 92.1506 61.3454 89.5576Z" fill="#894A00"/>
<path d="M59.8701 58.1588C60.4105 55.5657 58.7877 53.0169 56.2455 52.4657C53.7033 51.9145 51.2044 53.5698 50.664 56.1628C50.1237 58.7559 51.7465 61.3048 54.2887 61.8559C56.8308 62.4071 59.3297 60.7518 59.8701 58.1588Z" fill="#894A00"/>
<path d="M98.8627 51.8908C99.403 49.2978 97.7802 46.7489 95.238 46.1977C92.6958 45.6465 90.1969 47.3018 89.6566 49.8948C89.1162 52.4879 90.739 55.0368 93.2812 55.5879C95.8234 56.1391 98.3223 54.4838 98.8627 51.8908Z" fill="#894A00"/>
<path d="M87.6219 78.8972C88.1622 76.3042 86.5394 73.7553 83.9972 73.2041C81.455 72.6529 78.9561 74.3082 78.4158 76.9012C77.8754 79.4943 79.4982 82.0432 82.0404 82.5943C84.5826 83.1455 87.0815 81.4902 87.6219 78.8972Z" fill="#894A00"/>
<path d="M79.9536 11.8049C80.494 9.21182 78.8712 6.66294 76.329 6.11177C73.7868 5.5606 71.2879 7.21587 70.7475 9.8089C70.2072 12.4019 71.83 14.9508 74.3722 15.502C76.9144 16.0532 79.4133 14.3979 79.9536 11.8049Z" fill="#894A00"/>
<path d="M27.3452 83.4128C27.8855 80.8197 26.2627 78.2709 23.7205 77.7197C21.1783 77.1685 18.6794 78.8238 18.1391 81.4168C17.5987 84.0099 19.2215 86.5587 21.7637 87.1099C24.3059 87.6611 26.8048 86.0058 27.3452 83.4128Z" fill="#894A00"/>
<path d="M91.1725 38.7733C91.7128 36.1803 90.09 33.6314 87.5478 33.0802C85.0056 32.529 82.5067 34.1843 81.9664 36.7773C81.426 39.3704 83.0488 41.9193 85.591 42.4704C88.1332 43.0216 90.6321 41.3663 91.1725 38.7733Z" fill="#894A00"/>
<path d="M81.514 62.0332C82.0544 59.4401 80.4316 56.8913 77.8894 56.3401C75.3472 55.7889 72.8483 57.4442 72.3079 60.0372C71.7676 62.6303 73.3904 65.1791 75.9326 65.7303C78.4748 66.2815 80.9737 64.6262 81.514 62.0332Z" fill="#894A00"/>
<path d="M35.9358 26.7976C36.4761 24.2045 34.8533 21.6557 32.3112 21.1045C29.769 20.5533 27.2701 22.2086 26.7297 24.8016C26.1893 27.3947 27.8121 29.9435 30.3543 30.4947C32.8965 31.0459 35.3954 29.3906 35.9358 26.7976Z" fill="#894A00"/>
<path d="M41.0336 11.9543C41.5739 9.36127 39.9511 6.81239 37.4089 6.26122C34.8667 5.71005 32.3678 7.36531 31.8275 9.95835C31.2871 12.5514 32.9099 15.1003 35.4521 15.6514C37.9943 16.2026 40.4932 14.5473 41.0336 11.9543Z" fill="#894A00"/>
<path d="M44.3693 42.1208C44.9097 39.5277 43.2869 36.9789 40.7447 36.4277C38.2025 35.8765 35.7036 37.5318 35.1632 40.1248C34.6229 42.7179 36.2457 45.2667 38.7879 45.8179C41.3301 46.3691 43.829 44.7138 44.3693 42.1208Z" fill="#894A00"/>
<path d="M75.2728 30.4189C75.8132 27.8259 74.1904 25.277 71.6482 24.7259C69.106 24.1747 66.6071 25.83 66.0667 28.423C65.5264 31.016 67.1492 33.5649 69.6914 34.1161C72.2336 34.6672 74.7325 33.012 75.2728 30.4189Z" fill="#894A00"/>
<path d="M68.476 78.4268C69.0164 75.8337 67.3935 73.2849 64.8514 72.7337C62.3092 72.1825 59.8103 73.8378 59.2699 76.4308C58.7295 79.0239 60.3523 81.5728 62.8945 82.1239C65.4367 82.6751 67.9356 81.0198 68.476 78.4268Z" fill="#894A00"/>
<path d="M17.0994 65.2432C17.6398 62.6502 16.017 60.1013 13.4748 59.5501C10.9326 58.9989 8.43371 60.6542 7.89335 63.2472C7.35299 65.8403 8.9758 68.3892 11.518 68.9403C14.0602 69.4915 16.5591 67.8362 17.0994 65.2432Z" fill="#894A00"/>
<path d="M43.3168 85.6488C43.8572 83.0557 42.2344 80.5068 39.6922 79.9557C37.15 79.4045 34.6511 81.0598 34.1107 83.6528C33.5704 86.2459 35.1932 88.7947 37.7354 89.3459C40.2775 89.8971 42.7764 88.2418 43.3168 85.6488Z" fill="#894A00"/>
<path d="M15.9504 32.2791C16.4907 29.686 14.8679 27.1371 12.3257 26.586C9.78355 26.0348 7.28465 27.6901 6.74429 30.2831C6.20393 32.8761 7.82674 35.425 10.3689 35.9762C12.9111 36.5274 15.41 34.8721 15.9504 32.2791Z" fill="#894A00"/>
<path d="M56.3772 15.2809C56.9175 12.6879 55.2947 10.139 52.7525 9.58782C50.2103 9.03665 47.7114 10.6919 47.1711 13.2849C46.6307 15.878 48.2535 18.4269 50.7957 18.978C53.3379 19.5292 55.8368 17.8739 56.3772 15.2809Z" fill="#894A00"/>
<path d="M51.2387 72.6448C51.7791 70.0517 50.1563 67.5029 47.6141 66.9517C45.0719 66.4005 42.573 68.0558 42.0326 70.6488C41.4923 73.2419 43.1151 75.7907 45.6573 76.3419C48.1995 76.8931 50.6984 75.2378 51.2387 72.6448Z" fill="#894A00"/>
<path d="M24.0594 16.4529C24.5998 13.8599 22.977 11.311 20.4348 10.7598C17.8926 10.2086 15.3937 11.8639 14.8533 14.4569C14.313 17.05 15.9358 19.5989 18.478 20.15C21.0201 20.7012 23.519 19.0459 24.0594 16.4529Z" fill="#894A00"/>
<path d="M62.2497 39.0456C62.7901 36.4525 61.1673 33.9037 58.6251 33.3525C56.0829 32.8013 53.584 34.4566 53.0436 37.0496C52.5033 39.6427 54.1261 42.1915 56.6683 42.7427C59.2105 43.2939 61.7094 41.6386 62.2497 39.0456Z" fill="#894A00"/>
<path d="M12.3629 49.4944C12.9033 46.9013 11.2804 44.3525 8.73825 43.8013C6.19606 43.2501 3.69716 44.9054 3.1568 47.4984C2.61644 50.0915 4.23924 52.6404 6.78144 53.1915C9.32363 53.7427 11.8225 52.0874 12.3629 49.4944Z" fill="#894A00"/>
<path d="M42.7831 57.3833C42.3143 57.404 41.9018 57.2513 41.5458 56.9253C41.1897 56.5994 41.0014 56.202 40.9807 55.7331L40.5888 46.8457C40.5681 46.3768 40.7208 45.9644 41.0467 45.6083C41.3727 45.2523 41.7701 45.0639 42.239 45.0433L52.4051 44.595L51.9794 34.9404C51.9587 34.4715 52.1114 34.059 52.4373 33.703C52.7633 33.347 53.1607 33.1586 53.6296 33.1379L63.3482 32.7094C63.817 32.6887 64.2295 32.8414 64.5855 33.1673C64.9416 33.4933 65.1299 33.8907 65.1506 34.3596L65.5763 44.0142L75.7425 43.5659C76.2113 43.5453 76.6238 43.6979 76.9798 44.0239C77.3359 44.3498 77.5242 44.7473 77.5449 45.2161L77.9368 54.1035C77.9575 54.5724 77.8048 54.9848 77.4788 55.3409C77.1529 55.6969 76.7555 55.8853 76.2866 55.906L66.1205 56.3542L66.5603 66.3285C66.5809 66.7974 66.4283 67.2099 66.1023 67.5659C65.7764 67.9219 65.3789 68.1103 64.9101 68.131L55.1915 68.5595C54.7226 68.5802 54.3102 68.4275 53.9541 68.1016C53.5981 67.7756 53.4097 67.3782 53.3891 66.9093L52.9493 56.935L42.7831 57.3833ZM134.65 56.5355C135.119 56.5149 135.531 56.6675 135.887 56.9935C136.243 57.3194 136.432 57.7169 136.452 58.1857L136.878 67.8404C136.899 68.3092 136.746 68.7217 136.42 69.0777C136.094 69.4338 135.697 69.6221 135.228 69.6428L96.6095 71.3457C96.1406 71.3664 95.7281 71.2137 95.3721 70.8877C95.016 70.5618 94.8277 70.1644 94.807 69.6955L94.3813 60.0409C94.3606 59.572 94.5133 59.1595 94.8392 58.8035C95.1652 58.4474 95.5626 58.2591 96.0315 58.2384L107.86 57.7168L107.183 42.3718L100.915 46.9403C100.583 47.1685 100.268 47.2892 99.9696 47.3023C99.4154 47.3268 98.913 47.0713 98.4623 46.536L92.9281 38.7082C92.789 38.4581 92.7119 38.1625 92.6969 37.8215C92.6668 37.1395 92.899 36.5954 93.3936 36.1892L107.179 26.2923C107.47 26.1087 107.807 26.0084 108.191 25.9915L121.362 25.4107C121.831 25.39 122.243 25.5427 122.599 25.8686C122.955 26.1946 123.144 26.592 123.164 27.0609L124.484 56.9838L134.65 56.5355ZM189.587 50.6538C189.837 56.3229 188.044 60.6941 184.208 63.7675C180.414 66.8389 175.32 68.5156 168.926 68.7975C162.49 69.0813 157.247 67.8604 153.198 65.1348C149.148 62.4092 146.997 58.1692 146.743 52.4148L146.241 41.0339C146.072 37.1976 146.889 33.9371 148.693 31.2524C150.496 28.5677 152.969 26.5368 156.112 25.1597C159.295 23.7381 162.89 22.9389 166.896 22.7622C170.903 22.5856 174.533 23.0661 177.787 24.2039C181.081 25.2972 183.744 27.1016 185.777 29.6172C187.808 32.0901 188.907 35.2234 189.074 39.0171L189.587 50.6538ZM164.035 52.293C164.087 53.4865 164.536 54.4703 165.382 55.2445C166.226 55.976 167.223 56.3164 168.374 56.2657C169.525 56.2149 170.487 55.7668 171.261 54.9212C172.036 54.0756 172.397 53.0774 172.347 51.9265L171.783 39.1389C171.73 37.9454 171.282 36.9829 170.438 36.2513C169.635 35.4753 168.637 35.1136 167.443 35.1662C166.25 35.2188 165.266 35.6679 164.492 36.5135C163.76 37.3572 163.42 38.3545 163.471 39.5054L164.035 52.293Z" fill="#A73131"/>
<path d="M41.5458 56.9253L39.5199 59.138L39.5199 59.1381L41.5458 56.9253ZM41.0467 45.6083L38.834 43.5825L38.834 43.5825L41.0467 45.6083ZM52.4051 44.595L52.5373 47.5921L55.5344 47.4599L55.4022 44.4628L52.4051 44.595ZM52.4373 33.703L50.2246 31.6772L50.2246 31.6772L52.4373 33.703ZM64.5855 33.1673L66.6114 30.9546L66.6114 30.9546L64.5855 33.1673ZM65.5763 44.0142L62.5792 44.1464L62.7114 47.1435L65.7085 47.0113L65.5763 44.0142ZM76.9798 44.0239L79.0056 41.8112L79.0056 41.8112L76.9798 44.0239ZM77.4788 55.3409L79.6915 57.3667L79.6916 57.3667L77.4788 55.3409ZM66.1205 56.3542L65.9883 53.3571L62.9912 53.4893L63.1234 56.4864L66.1205 56.3542ZM66.1023 67.5659L68.315 69.5917L68.3151 69.5917L66.1023 67.5659ZM53.9541 68.1016L51.9283 70.3143L51.9283 70.3143L53.9541 68.1016ZM52.9493 56.935L55.9463 56.8028L55.8142 53.8058L52.8171 53.9379L52.9493 56.935ZM42.651 54.3862C42.7888 54.3801 42.9699 54.3992 43.1634 54.4708C43.3551 54.5418 43.4914 54.6392 43.5716 54.7126L39.5199 59.1381C40.4441 59.9841 41.6265 60.4372 42.9153 60.3804L42.651 54.3862ZM43.5716 54.7126C43.6518 54.786 43.7608 54.9132 43.8484 55.098C43.9367 55.2844 43.9717 55.4631 43.9778 55.6009L37.9836 55.8652C38.0404 57.154 38.5958 58.292 39.5199 59.138L43.5716 54.7126ZM43.9778 55.6009L43.5859 46.7136L37.5917 46.9779L37.9836 55.8652L43.9778 55.6009ZM43.5859 46.7136C43.592 46.8514 43.5729 47.0325 43.5013 47.226C43.4303 47.4177 43.3329 47.554 43.2595 47.6341L38.834 43.5825C37.9879 44.5067 37.5349 45.6891 37.5917 46.9779L43.5859 46.7136ZM43.2594 47.6341C43.186 47.7143 43.0589 47.8234 42.8741 47.911C42.6877 47.9993 42.509 48.0343 42.3712 48.0404L42.1068 42.0462C40.8181 42.103 39.6801 42.6584 38.834 43.5825L43.2594 47.6341ZM42.3712 48.0404L52.5373 47.5921L52.273 41.5979L42.1068 42.0462L42.3712 48.0404ZM55.4022 44.4628L54.9765 34.8082L48.9823 35.0725L49.408 44.7272L55.4022 44.4628ZM54.9765 34.8082C54.9826 34.9461 54.9635 35.1272 54.8919 35.3206C54.8209 35.5124 54.7235 35.6486 54.6501 35.7288L50.2246 31.6772C49.3785 32.6014 48.9255 33.7838 48.9823 35.0725L54.9765 34.8082ZM54.6501 35.7288C54.5766 35.809 54.4495 35.9181 54.2647 36.0056C54.0783 36.094 53.8996 36.1289 53.7618 36.135L53.4975 30.1408C52.2087 30.1977 51.0707 30.753 50.2246 31.6772L54.6501 35.7288ZM53.7618 36.135L63.4803 35.7065L63.216 29.7123L53.4975 30.1408L53.7618 36.135ZM63.4803 35.7065C63.3425 35.7126 63.1614 35.6935 62.9679 35.6219C62.7762 35.5509 62.6399 35.4535 62.5597 35.38L66.6114 30.9546C65.6872 30.1085 64.5048 29.6555 63.216 29.7123L63.4803 35.7065ZM62.5597 35.38C62.4795 35.3066 62.3705 35.1795 62.2829 34.9947C62.1946 34.8083 62.1596 34.6296 62.1535 34.4918L68.1477 34.2274C68.0909 32.9387 67.5355 31.8007 66.6114 30.9546L62.5597 35.38ZM62.1535 34.4918L62.5792 44.1464L68.5734 43.8821L68.1477 34.2274L62.1535 34.4918ZM65.7085 47.0113L75.8746 46.563L75.6103 40.5689L65.4442 41.0171L65.7085 47.0113ZM75.8746 46.563C75.7368 46.5691 75.5557 46.55 75.3622 46.4784C75.1705 46.4075 75.0342 46.31 74.954 46.2366L79.0056 41.8112C78.0815 40.9651 76.8991 40.512 75.6103 40.5689L75.8746 46.563ZM74.954 46.2366C74.8738 46.1632 74.7648 46.036 74.6772 45.8513C74.5888 45.6649 74.5539 45.4861 74.5478 45.3483L80.542 45.084C80.4852 43.7952 79.9298 42.6573 79.0056 41.8112L74.954 46.2366ZM74.5478 45.3483L74.9397 54.2357L80.9339 53.9714L80.542 45.084L74.5478 45.3483ZM74.9397 54.2357C74.9336 54.0978 74.9527 53.9167 75.0243 53.7233C75.0953 53.5315 75.1927 53.3953 75.2661 53.3151L79.6916 57.3667C80.5377 56.4425 80.9907 55.2601 80.9339 53.9714L74.9397 54.2357ZM75.2661 53.3151C75.3396 53.2349 75.4667 53.1258 75.6515 53.0382C75.8379 52.9499 76.0166 52.9149 76.1544 52.9089L76.4187 58.903C77.7075 58.8462 78.8455 58.2909 79.6915 57.3667L75.2661 53.3151ZM76.1544 52.9089L65.9883 53.3571L66.2526 59.3513L76.4187 58.903L76.1544 52.9089ZM63.1234 56.4864L63.5632 66.4607L69.5574 66.1964L69.1175 56.2221L63.1234 56.4864ZM63.5632 66.4607C63.5571 66.3229 63.5762 66.1418 63.6478 65.9483C63.7188 65.7565 63.8162 65.6203 63.8896 65.5401L68.3151 69.5917C69.1611 68.6676 69.6142 67.4851 69.5574 66.1964L63.5632 66.4607ZM63.8896 65.5401C63.963 65.4599 64.0902 65.3508 64.275 65.2633C64.4614 65.1749 64.6401 65.14 64.7779 65.1339L65.0422 71.1281C66.331 71.0712 67.4689 70.5159 68.315 69.5917L63.8896 65.5401ZM64.7779 65.1339L55.0594 65.5624L55.3237 71.5566L65.0422 71.1281L64.7779 65.1339ZM55.0594 65.5624C55.1972 65.5563 55.3783 65.5754 55.5718 65.647C55.7635 65.718 55.8998 65.8155 55.98 65.8889L51.9283 70.3143C52.8525 71.1604 54.0349 71.6134 55.3237 71.5566L55.0594 65.5624ZM55.98 65.8889C56.0601 65.9623 56.1692 66.0894 56.2568 66.2742C56.3451 66.4606 56.3801 66.6393 56.3862 66.7772L50.392 67.0415C50.4488 68.3302 51.0042 69.4682 51.9283 70.3143L55.98 65.8889ZM56.3862 66.7772L55.9463 56.8028L49.9522 57.0672L50.392 67.0415L56.3862 66.7772ZM52.8171 53.9379L42.651 54.3862L42.9153 60.3804L53.0814 59.9321L52.8171 53.9379ZM135.887 56.9935L133.862 59.2062L133.862 59.2062L135.887 56.9935ZM136.42 69.0777L134.207 67.0519L134.207 67.0519L136.42 69.0777ZM95.3721 70.8877L93.3463 73.1005L93.3463 73.1005L95.3721 70.8877ZM94.8392 58.8035L92.6265 56.7777L92.6265 56.7777L94.8392 58.8035ZM107.86 57.7168L107.992 60.7139L110.989 60.5818L110.857 57.5847L107.86 57.7168ZM107.183 42.3718L110.18 42.2396L109.934 36.6549L105.416 39.9473L107.183 42.3718ZM100.915 46.9403L102.615 49.4118L102.649 49.3888L102.681 49.3648L100.915 46.9403ZM98.4623 46.536L96.0127 48.2678L96.0858 48.3712L96.1674 48.4681L98.4623 46.536ZM92.9281 38.7082L90.3066 40.1667L90.3852 40.308L90.4785 40.44L92.9281 38.7082ZM93.3936 36.1892L91.644 33.7522L91.5649 33.809L91.4897 33.8708L93.3936 36.1892ZM107.179 26.2923L105.577 23.7557L105.502 23.8033L105.429 23.8553L107.179 26.2923ZM124.484 56.9838L121.487 57.116L121.619 60.1131L124.616 59.9809L124.484 56.9838ZM134.782 59.5326C134.644 59.5387 134.463 59.5196 134.27 59.448C134.078 59.3771 133.942 59.2796 133.862 59.2062L137.913 54.7808C136.989 53.9347 135.807 53.4816 134.518 53.5385L134.782 59.5326ZM133.862 59.2062C133.781 59.1328 133.672 59.0056 133.585 58.8209C133.496 58.6345 133.461 58.4557 133.455 58.3179L139.45 58.0536C139.393 56.7648 138.837 55.6269 137.913 54.7808L133.862 59.2062ZM133.455 58.3179L133.881 67.9725L139.875 67.7082L139.45 58.0536L133.455 58.3179ZM133.881 67.9725C133.875 67.8347 133.894 67.6536 133.966 67.4601C134.037 67.2684 134.134 67.1321 134.207 67.0519L138.633 71.1036C139.479 70.1794 139.932 68.997 139.875 67.7082L133.881 67.9725ZM134.207 67.0519C134.281 66.9717 134.408 66.8627 134.593 66.7751C134.779 66.6868 134.958 66.6518 135.096 66.6457L135.36 72.6399C136.649 72.5831 137.787 72.0277 138.633 71.1035L134.207 67.0519ZM135.096 66.6457L96.4773 68.3486L96.7416 74.3428L135.36 72.6399L135.096 66.6457ZM96.4773 68.3486C96.6151 68.3425 96.7962 68.3616 96.9897 68.4332C97.1815 68.5042 97.3177 68.6016 97.3979 68.675L93.3463 73.1005C94.2704 73.9466 95.4528 74.3996 96.7416 74.3428L96.4773 68.3486ZM97.3979 68.675C97.4781 68.7484 97.5872 68.8756 97.6747 69.0604C97.7631 69.2468 97.798 69.4255 97.8041 69.5633L91.8099 69.8276C91.8667 71.1164 92.4221 72.2544 93.3463 73.1005L97.3979 68.675ZM97.8041 69.5633L97.3784 59.9087L91.3842 60.173L91.8099 69.8276L97.8041 69.5633ZM97.3784 59.9087C97.3845 60.0465 97.3654 60.2276 97.2938 60.4211C97.2228 60.6129 97.1254 60.7491 97.0519 60.8293L92.6265 56.7777C91.7804 57.7018 91.3274 58.8843 91.3842 60.173L97.3784 59.9087ZM97.0519 60.8293C96.9785 60.9095 96.8514 61.0186 96.6666 61.1061C96.4802 61.1945 96.3015 61.2294 96.1637 61.2355L95.8993 55.2413C94.6106 55.2982 93.4726 55.8535 92.6265 56.7777L97.0519 60.8293ZM96.1637 61.2355L107.992 60.7139L107.728 54.7198L95.8993 55.2413L96.1637 61.2355ZM110.857 57.5847L110.18 42.2396L104.186 42.5039L104.863 57.849L110.857 57.5847ZM105.416 39.9473L99.1476 44.5159L102.681 49.3648L108.95 44.7962L105.416 39.9473ZM99.214 44.4689C99.1894 44.4858 99.4107 44.324 99.8374 44.3052L100.102 50.2994C101.125 50.2543 101.976 49.8512 102.615 49.4118L99.214 44.4689ZM99.8374 44.3052C100.086 44.2943 100.335 44.3521 100.537 44.4549C100.719 44.5476 100.784 44.636 100.757 44.6039L96.1674 48.4681C97.0452 49.5108 98.3784 50.3754 100.102 50.2994L99.8374 44.3052ZM100.912 44.8041L95.3778 36.9763L90.4785 40.44L96.0127 48.2678L100.912 44.8041ZM95.5497 37.2496C95.6766 37.4777 95.6924 37.6539 95.6939 37.6893L89.6998 37.9536C89.7314 38.6711 89.9014 39.4384 90.3066 40.1667L95.5497 37.2496ZM95.6939 37.6893C95.6957 37.7283 95.6932 37.8793 95.6076 38.0797C95.5192 38.2867 95.3917 38.4303 95.2976 38.5076L91.4897 33.8708C90.2105 34.9213 89.6313 36.4015 89.6998 37.9536L95.6939 37.6893ZM95.1432 38.6262L108.929 28.7293L105.429 23.8553L91.644 33.7522L95.1432 38.6262ZM108.781 28.829C108.689 28.8871 108.594 28.9286 108.505 28.9549C108.418 28.9807 108.354 28.9872 108.323 28.9886L108.059 22.9944C107.215 23.0316 106.359 23.2619 105.577 23.7557L108.781 28.829ZM108.323 28.9886L121.494 28.4078L121.23 22.4136L108.059 22.9944L108.323 28.9886ZM121.494 28.4078C121.356 28.4139 121.175 28.3948 120.982 28.3232C120.79 28.2522 120.654 28.1548 120.574 28.0813L124.625 23.6559C123.701 22.8098 122.519 22.3568 121.23 22.4136L121.494 28.4078ZM120.574 28.0813C120.493 28.0079 120.384 27.8808 120.297 27.696C120.208 27.5096 120.173 27.3309 120.167 27.1931L126.161 26.9287C126.105 25.64 125.549 24.502 124.625 23.6559L120.574 28.0813ZM120.167 27.1931L121.487 57.116L127.481 56.8517L126.161 26.9287L120.167 27.1931ZM124.616 59.9809L134.782 59.5326L134.518 53.5385L124.352 53.9867L124.616 59.9809ZM184.208 63.7675L182.332 61.4261L182.326 61.431L182.32 61.4358L184.208 63.7675ZM153.198 65.1348L154.873 62.6461L153.198 65.1348ZM156.112 25.1597L157.316 27.9074L157.325 27.9032L157.335 27.8989L156.112 25.1597ZM177.787 24.2039L176.796 27.0357L176.819 27.0436L176.842 27.0512L177.787 24.2039ZM185.777 29.6172L183.443 31.5028L183.451 31.512L183.458 31.5212L185.777 29.6172ZM165.382 55.2445L163.356 57.4572L163.386 57.4846L163.417 57.5111L165.382 55.2445ZM171.261 54.9212L169.049 52.8954L171.261 54.9212ZM170.438 36.2513L168.353 38.4085L168.412 38.4648L168.473 38.518L170.438 36.2513ZM164.492 36.5135L162.279 34.4877L162.252 34.5176L162.225 34.5482L164.492 36.5135ZM186.59 50.7859C186.805 55.6677 185.299 59.0495 182.332 61.4261L186.083 66.1088C190.789 62.3388 192.869 56.9781 192.584 50.5216L186.59 50.7859ZM182.32 61.4358C179.16 63.9938 174.746 65.538 168.794 65.8004L169.059 71.7946C175.895 71.4932 181.667 69.684 186.095 66.0991L182.32 61.4358ZM168.794 65.8004C162.795 66.065 158.242 64.9139 154.873 62.6461L151.523 67.6236C156.252 70.807 162.185 72.0977 169.059 71.7946L168.794 65.8004ZM154.873 62.6461C151.761 60.5517 149.961 57.2803 149.74 52.2827L143.746 52.547C144.033 59.0582 146.536 64.2668 151.523 67.6236L154.873 62.6461ZM149.74 52.2827L149.238 40.9017L143.244 41.166L143.746 52.547L149.74 52.2827ZM149.238 40.9017C149.092 37.5823 149.8 34.9837 151.183 32.9253L146.203 29.5795C143.978 32.8905 143.052 36.8129 143.244 41.166L149.238 40.9017ZM151.183 32.9253C152.649 30.743 154.662 29.0702 157.316 27.9074L154.907 22.4119C151.276 24.0033 148.344 26.3923 146.203 29.5795L151.183 32.9253ZM157.335 27.8989C160.126 26.6524 163.343 25.9219 167.029 25.7593L166.764 19.7652C162.437 19.956 158.463 20.8237 154.888 22.4204L157.335 27.8989ZM167.029 25.7593C170.716 25.5968 173.957 26.0428 176.796 27.0357L178.777 21.3721C175.11 20.0895 171.091 19.5744 166.764 19.7652L167.029 25.7593ZM176.842 27.0512C179.632 27.9773 181.798 29.4671 183.443 31.5028L188.11 27.7316C185.69 24.7362 182.529 22.6171 178.732 21.3566L176.842 27.0512ZM183.458 31.5212C185.005 33.4037 185.933 35.8791 186.077 39.1492L192.071 38.8849C191.881 34.5677 190.611 30.7765 188.095 27.7132L183.458 31.5212ZM186.077 39.1492L186.59 50.7859L192.584 50.5216L192.071 38.8849L186.077 39.1492ZM161.038 52.4251C161.124 54.3762 161.897 56.1211 163.356 57.4572L167.408 53.0318C167.176 52.8196 167.051 52.5967 167.032 52.1608L161.038 52.4251ZM163.417 57.5111C164.86 58.7629 166.615 59.3462 168.506 59.2628L168.242 53.2686C167.831 53.2867 167.591 53.1892 167.347 52.9779L163.417 57.5111ZM168.506 59.2628C170.447 59.1772 172.16 58.3826 173.474 56.947L169.049 52.8954C168.815 53.1509 168.602 53.2527 168.242 53.2686L168.506 59.2628ZM173.474 56.947C174.788 55.5114 175.429 53.7357 175.344 51.7943L169.349 52.0586C169.365 52.419 169.283 52.6398 169.049 52.8954L173.474 56.947ZM175.344 51.7943L174.78 39.0067L168.786 39.271L169.349 52.0586L175.344 51.7943ZM174.78 39.0067C174.694 37.0544 173.916 35.2966 172.403 33.9847L168.473 38.518C168.647 38.6692 168.766 38.8363 168.786 39.271L174.78 39.0067ZM172.523 34.0942C171.083 32.7025 169.264 32.083 167.311 32.1691L167.576 38.1633C168.01 38.1441 168.187 38.2481 168.353 38.4085L172.523 34.0942ZM167.311 32.1691C165.36 32.2551 163.615 33.0283 162.279 34.4877L166.705 38.5393C166.917 38.3075 167.14 38.1825 167.576 38.1633L167.311 32.1691ZM162.225 34.5482C160.974 35.9919 160.39 37.7467 160.474 39.6376L166.468 39.3732C166.45 38.9623 166.547 38.7226 166.759 38.4788L162.225 34.5482ZM160.474 39.6376L161.038 52.4251L167.032 52.1608L166.468 39.3732L160.474 39.6376Z" fill="black"/>
<defs>
<linearGradient id="paint0_linear" x1="79.6261" y1="130.734" x2="28.8758" y2="1.16229" gradientUnits="userSpaceOnUse">
<stop stop-color="#EFC492"/>
<stop offset="1" stop-color="#B76A11"/>
</linearGradient>
</defs>
</svg>
