<svg width="236" height="127" viewBox="0 0 236 127" fill="none" xmlns="http://www.w3.org/2000/svg">
<path d="M119.541 74.6533C125.87 45.7433 106.805 17.3133 76.9589 11.1533C47.1128 4.99335 17.7875 23.436 11.4589 52.346C5.13032 81.2561 24.195 109.686 54.0411 115.846C83.8872 122.006 113.213 103.563 119.541 74.6533Z" fill="url(#paint0_linear)"/>
<path d="M51.6654 77.253C52.2745 74.478 50.4453 71.7502 47.5797 71.1604C44.7142 70.5705 41.8975 72.342 41.2884 75.117C40.6793 77.892 42.5085 80.6198 45.374 81.2096C48.2396 81.7995 51.0563 80.028 51.6654 77.253Z" fill="#894A00"/>
<path d="M45.5267 61.9864C46.1358 59.2114 44.3066 56.4836 41.4411 55.8938C38.5755 55.3039 35.7588 57.0753 35.1497 59.8504C34.5406 62.6254 36.3698 65.3532 39.2354 65.943C42.1009 66.5329 44.9176 64.7614 45.5267 61.9864Z" fill="#894A00"/>
<path d="M79.3148 105.701C79.9239 102.926 78.0947 100.198 75.2292 99.6086C72.3636 99.0188 69.5469 100.79 68.9378 103.565C68.3287 106.34 70.1579 109.068 73.0235 109.658C75.889 110.248 78.7057 108.476 79.3148 105.701Z" fill="#894A00"/>
<path d="M77.6517 72.0997C78.2608 69.3247 76.4316 66.5969 73.5661 66.007C70.7005 65.4172 67.8838 67.1886 67.2747 69.9637C66.6656 72.7387 68.4948 75.4664 71.3604 76.0563C74.2259 76.6461 77.0426 74.8747 77.6517 72.0997Z" fill="#894A00"/>
<path d="M121.604 65.3907C122.213 62.6157 120.384 59.8879 117.518 59.2981C114.653 58.7082 111.836 60.4796 111.227 63.2547C110.618 66.0297 112.447 68.7575 115.313 69.3473C118.178 69.9372 120.995 68.1657 121.604 65.3907Z" fill="#894A00"/>
<path d="M108.933 94.293C109.542 91.518 107.713 88.7903 104.847 88.2004C101.982 87.6106 99.1651 89.382 98.556 92.157C97.9469 94.932 99.7761 97.6598 102.642 98.2497C105.507 98.8395 108.324 97.0681 108.933 94.293Z" fill="#894A00"/>
<path d="M100.289 22.4923C100.899 19.7172 99.0693 16.9895 96.2038 16.3996C93.3382 15.8098 90.5215 17.5812 89.9124 20.3562C89.3033 23.1313 91.1325 25.859 93.9981 26.4489C96.8636 27.0387 99.6803 25.2673 100.289 22.4923Z" fill="#894A00"/>
<path d="M40.9896 99.1251C41.5987 96.3501 39.7695 93.6223 36.904 93.0324C34.0384 92.4426 31.2217 94.214 30.6126 96.989C30.0035 99.7641 31.8327 102.492 34.6983 103.082C37.5638 103.672 40.3805 101.9 40.9896 99.1251Z" fill="#894A00"/>
<path d="M112.935 51.3536C113.544 48.5786 111.715 45.8508 108.849 45.261C105.984 44.6711 103.167 46.4425 102.558 49.2176C101.949 51.9926 103.778 54.7204 106.644 55.3102C109.509 55.9001 112.326 54.1286 112.935 51.3536Z" fill="#894A00"/>
<path d="M102.048 76.2452C102.657 73.4702 100.828 70.7424 97.9626 70.1526C95.097 69.5627 92.2803 71.3341 91.6712 74.1092C91.0621 76.8842 92.8913 79.612 95.7569 80.2018C98.6224 80.7917 101.439 79.0202 102.048 76.2452Z" fill="#894A00"/>
<path d="M50.6742 38.5372C51.2833 35.7622 49.4541 33.0344 46.5885 32.4445C43.723 31.8547 40.9063 33.6261 40.2972 36.4012C39.6881 39.1762 41.5173 41.9039 44.3828 42.4938C47.2484 43.0836 50.0651 41.3122 50.6742 38.5372Z" fill="#894A00"/>
<path d="M56.4193 22.6514C57.0284 19.8764 55.1992 17.1487 52.3337 16.5588C49.4681 15.969 46.6514 17.7404 46.0423 20.5154C45.4332 23.2904 47.2624 26.0182 50.128 26.6081C52.9935 27.1979 55.8102 25.4265 56.4193 22.6514Z" fill="#894A00"/>
<path d="M60.18 54.9356C60.7891 52.1606 58.9599 49.4328 56.0944 48.843C53.2289 48.2531 50.4121 50.0246 49.803 52.7996C49.194 55.5746 51.0232 58.3024 53.8887 58.8922C56.7542 59.4821 59.571 57.7107 60.18 54.9356Z" fill="#894A00"/>
<path d="M95.0131 42.4132C95.6221 39.6381 93.7929 36.9104 90.9274 36.3205C88.0619 35.7307 85.2451 37.5021 84.6361 40.2771C84.027 43.0522 85.8562 45.7799 88.7217 46.3698C91.5872 46.9596 94.404 45.1882 95.0131 42.4132Z" fill="#894A00"/>
<path d="M87.3529 93.7901C87.962 91.0151 86.1328 88.2873 83.2672 87.6975C80.4017 87.1076 77.585 88.8791 76.9759 91.6541C76.3668 94.4291 78.196 97.1569 81.0615 97.7467C83.9271 98.3366 86.7438 96.5651 87.3529 93.7901Z" fill="#894A00"/>
<path d="M29.4418 79.6807C30.0509 76.9057 28.2216 74.178 25.3561 73.5881C22.4906 72.9983 19.6739 74.7697 19.0648 77.5447C18.4557 80.3197 20.2849 83.0475 23.1504 83.6374C26.0159 84.2272 28.8327 82.4558 29.4418 79.6807Z" fill="#894A00"/>
<path d="M58.9935 101.519C59.6026 98.7436 57.7734 96.0158 54.9079 95.426C52.0423 94.8361 49.2256 96.6076 48.6165 99.3826C48.0074 102.158 49.8366 104.885 52.7022 105.475C55.5677 106.065 58.3844 104.294 58.9935 101.519Z" fill="#894A00"/>
<path d="M28.1459 44.4034C28.755 41.6284 26.9257 38.9006 24.0602 38.3108C21.1947 37.7209 18.378 39.4923 17.7689 42.2674C17.1598 45.0424 18.989 47.7702 21.8545 48.36C24.72 48.9499 27.5368 47.1784 28.1459 44.4034Z" fill="#894A00"/>
<path d="M73.7152 26.212C74.3243 23.437 72.4951 20.7092 69.6296 20.1194C66.764 19.5295 63.9473 21.3009 63.3382 24.076C62.7291 26.851 64.5583 29.5788 67.4239 30.1686C70.2894 30.7585 73.1061 28.987 73.7152 26.212Z" fill="#894A00"/>
<path d="M67.9222 87.6016C68.5313 84.8266 66.7021 82.0988 63.8366 81.509C60.9711 80.9191 58.1543 82.6906 57.5452 85.4656C56.9361 88.2406 58.7654 90.9684 61.6309 91.5583C64.4964 92.1481 67.3131 90.3767 67.9222 87.6016Z" fill="#894A00"/>
<path d="M37.2875 27.4669C37.8966 24.6919 36.0673 21.9641 33.2018 21.3742C30.3363 20.7844 27.5196 22.5558 26.9105 25.3308C26.3014 28.1059 28.1306 30.8336 30.9961 31.4235C33.8616 32.0133 36.6784 30.2419 37.2875 27.4669Z" fill="#894A00"/>
<path d="M80.3343 51.6456C80.9434 48.8706 79.1142 46.1428 76.2487 45.5529C73.3832 44.9631 70.5664 46.7345 69.9573 49.5096C69.3483 52.2846 71.1775 55.0123 74.043 55.6022C76.9085 56.192 79.7253 54.4206 80.3343 51.6456Z" fill="#894A00"/>
<path d="M24.1019 62.8272C24.711 60.0522 22.8818 57.3244 20.0163 56.7346C17.1507 56.1447 14.334 57.9162 13.7249 60.6912C13.1158 63.4662 14.945 66.194 17.8106 66.7838C20.6761 67.3737 23.4928 65.6023 24.1019 62.8272Z" fill="#894A00"/>
<path d="M69.4007 64.872V53.28H58.2407C57.7127 53.28 57.2567 53.088 56.8727 52.704C56.4887 52.32 56.2967 51.864 56.2967 51.336V43.488C56.2967 42.96 56.4887 42.504 56.8727 42.12C57.2567 41.736 57.7127 41.544 58.2407 41.544H69.4007V30.312C69.4007 29.784 69.5927 29.328 69.9767 28.944C70.3607 28.56 70.8167 28.368 71.3447 28.368H80.1287C80.6567 28.368 81.1127 28.56 81.4967 28.944C81.8807 29.328 82.0727 29.784 82.0727 30.312V41.544H93.0887C93.6167 41.544 94.0727 41.736 94.4567 42.12C94.8407 42.504 95.0327 42.96 95.0327 43.488V51.336C95.0327 51.864 94.8407 52.32 94.4567 52.704C94.0727 53.088 93.6167 53.28 93.0887 53.28H82.0727V64.872C82.0727 65.4 81.8807 65.856 81.4967 66.24C81.1127 66.624 80.6567 66.816 80.1287 66.816H71.3447C70.8167 66.816 70.3607 66.624 69.9767 66.24C69.5927 65.856 69.4007 65.4 69.4007 64.872ZM119.488 39.456V53.928C119.488 55.32 119.824 56.448 120.496 57.312C121.168 58.176 122.152 58.608 123.448 58.608C124.744 58.608 125.728 58.176 126.4 57.312C127.072 56.448 127.408 55.32 127.408 53.928V39.456C127.408 36.336 126.088 34.776 123.448 34.776C120.808 34.776 119.488 36.336 119.488 39.456ZM146.128 40.176V53.352C146.128 59.544 144.088 64.32 140.008 67.68C135.976 71.04 130.456 72.72 123.448 72.72C116.44 72.72 110.896 71.04 106.816 67.68C102.784 64.272 100.768 59.448 100.768 53.208V40.32C100.768 34.128 102.856 29.352 107.032 25.992C111.256 22.584 116.728 20.88 123.448 20.88C130.168 20.88 135.616 22.584 139.792 25.992C144.016 29.352 146.128 34.08 146.128 40.176ZM156.026 55.584H168.554C169.082 55.584 169.538 55.776 169.922 56.16C170.306 56.544 170.498 57 170.498 57.528V70.056C170.498 70.584 170.306 71.04 169.922 71.424C169.538 71.808 169.082 72 168.554 72H156.026C155.498 72 155.042 71.808 154.658 71.424C154.274 71.04 154.082 70.584 154.082 70.056V57.528C154.082 57 154.274 56.544 154.658 56.16C155.042 55.776 155.498 55.584 156.026 55.584ZM197.545 56.448C198.217 57.312 198.841 57.936 199.417 58.32C199.993 58.656 200.857 58.824 202.009 58.824C203.209 58.824 204.217 58.44 205.033 57.672C205.897 56.856 206.329 55.8 206.329 54.504C206.329 53.208 205.921 52.128 205.105 51.264C204.337 50.4 203.329 49.968 202.081 49.968C200.833 49.968 199.777 50.256 198.913 50.832C198.097 51.408 197.569 51.696 197.329 51.696H183.001C182.569 51.696 182.185 51.552 181.849 51.264C181.561 50.928 181.417 50.544 181.417 50.112V49.752L184.297 24.048C184.489 22.416 185.425 21.6 187.105 21.6H219.289C219.817 21.6 220.273 21.792 220.657 22.176C221.041 22.56 221.233 23.016 221.233 23.544V33.696C221.233 34.224 221.041 34.68 220.657 35.064C220.273 35.448 219.817 35.64 219.289 35.64H198.265L197.689 40.752C200.089 39.12 203.425 38.304 207.697 38.304C212.017 38.304 215.953 39.912 219.505 43.128C223.105 46.296 224.905 50.328 224.905 55.224C224.905 60.072 222.889 64.224 218.857 67.68C214.825 71.136 209.161 72.864 201.865 72.864C194.569 72.864 188.881 71.328 184.801 68.256C180.769 65.136 178.753 61.296 178.753 56.736C178.753 56.304 178.897 55.944 179.185 55.656C179.521 55.32 179.905 55.152 180.337 55.152H194.881C195.985 55.152 196.873 55.584 197.545 56.448Z" fill="#A73131"/>
<path d="M69.4007 53.28H72.4007V50.28H69.4007V53.28ZM56.8727 52.704L54.7514 54.8253L54.7514 54.8253L56.8727 52.704ZM56.8727 42.12L54.7514 39.9987L54.7514 39.9987L56.8727 42.12ZM69.4007 41.544V44.544H72.4007V41.544H69.4007ZM69.9767 28.944L67.8554 26.8227L67.8554 26.8227L69.9767 28.944ZM81.4967 28.944L83.618 26.8227L83.618 26.8227L81.4967 28.944ZM82.0727 41.544H79.0727V44.544H82.0727V41.544ZM94.4567 42.12L92.3354 44.2413L92.3354 44.2413L94.4567 42.12ZM94.4567 52.704L92.3354 50.5827L92.3354 50.5827L94.4567 52.704ZM82.0727 53.28V50.28H79.0727V53.28H82.0727ZM81.4967 66.24L83.618 68.3613L83.618 68.3613L81.4967 66.24ZM72.4007 64.872V53.28H66.4007V64.872H72.4007ZM69.4007 50.28H58.2407V56.28H69.4007V50.28ZM58.2407 50.28C58.3494 50.28 58.5021 50.3017 58.6669 50.3711C58.83 50.4398 58.9385 50.5271 58.994 50.5827L54.7514 54.8253C55.6801 55.754 56.892 56.28 58.2407 56.28V50.28ZM58.994 50.5827C59.0496 50.6382 59.1369 50.7467 59.2056 50.9098C59.275 51.0746 59.2967 51.2274 59.2967 51.336H53.2967C53.2967 52.6847 53.8227 53.8967 54.7514 54.8253L58.994 50.5827ZM59.2967 51.336V43.488H53.2967V51.336H59.2967ZM59.2967 43.488C59.2967 43.5966 59.275 43.7494 59.2056 43.9142C59.1369 44.0773 59.0496 44.1858 58.994 44.2413L54.7514 39.9987C53.8227 40.9273 53.2967 42.1393 53.2967 43.488H59.2967ZM58.994 44.2413C58.9385 44.2969 58.83 44.3842 58.6669 44.4529C58.5021 44.5223 58.3494 44.544 58.2407 44.544V38.544C56.892 38.544 55.6801 39.07 54.7514 39.9987L58.994 44.2413ZM58.2407 44.544H69.4007V38.544H58.2407V44.544ZM72.4007 41.544V30.312H66.4007V41.544H72.4007ZM72.4007 30.312C72.4007 30.4206 72.379 30.5734 72.3096 30.7382C72.2409 30.9013 72.1536 31.0098 72.098 31.0653L67.8554 26.8227C66.9267 27.7513 66.4007 28.9633 66.4007 30.312H72.4007ZM72.098 31.0653C72.0425 31.1209 71.934 31.2082 71.7709 31.2769C71.6061 31.3463 71.4534 31.368 71.3447 31.368V25.368C69.996 25.368 68.7841 25.894 67.8554 26.8227L72.098 31.0653ZM71.3447 31.368H80.1287V25.368H71.3447V31.368ZM80.1287 31.368C80.0201 31.368 79.8673 31.3463 79.7026 31.2769C79.5394 31.2082 79.4309 31.1209 79.3754 31.0653L83.618 26.8227C82.6894 25.894 81.4774 25.368 80.1287 25.368V31.368ZM79.3754 31.0653C79.3199 31.0098 79.2325 30.9013 79.1638 30.7382C79.0944 30.5734 79.0727 30.4206 79.0727 30.312H85.0727C85.0727 28.9633 84.5467 27.7513 83.618 26.8227L79.3754 31.0653ZM79.0727 30.312V41.544H85.0727V30.312H79.0727ZM82.0727 44.544H93.0887V38.544H82.0727V44.544ZM93.0887 44.544C92.9801 44.544 92.8273 44.5223 92.6626 44.4529C92.4994 44.3842 92.3909 44.2969 92.3354 44.2413L96.578 39.9987C95.6494 39.07 94.4374 38.544 93.0887 38.544V44.544ZM92.3354 44.2413C92.2799 44.1858 92.1925 44.0773 92.1238 43.9142C92.0544 43.7494 92.0327 43.5966 92.0327 43.488H98.0327C98.0327 42.1393 97.5067 40.9273 96.578 39.9987L92.3354 44.2413ZM92.0327 43.488V51.336H98.0327V43.488H92.0327ZM92.0327 51.336C92.0327 51.2274 92.0544 51.0746 92.1238 50.9098C92.1925 50.7467 92.2799 50.6382 92.3354 50.5827L96.578 54.8253C97.5067 53.8967 98.0327 52.6847 98.0327 51.336H92.0327ZM92.3354 50.5827C92.3909 50.5271 92.4994 50.4398 92.6626 50.3711C92.8273 50.3017 92.9801 50.28 93.0887 50.28V56.28C94.4374 56.28 95.6494 55.754 96.578 54.8253L92.3354 50.5827ZM93.0887 50.28H82.0727V56.28H93.0887V50.28ZM79.0727 53.28V64.872H85.0727V53.28H79.0727ZM79.0727 64.872C79.0727 64.7634 79.0944 64.6106 79.1638 64.4458C79.2325 64.2827 79.3199 64.1742 79.3754 64.1187L83.618 68.3613C84.5467 67.4327 85.0727 66.2207 85.0727 64.872H79.0727ZM79.3754 64.1187C79.4309 64.0631 79.5394 63.9758 79.7025 63.9071C79.8673 63.8377 80.0201 63.816 80.1287 63.816V69.816C81.4774 69.816 82.6894 69.29 83.618 68.3613L79.3754 64.1187ZM80.1287 63.816H71.3447V69.816H80.1287V63.816ZM71.3447 63.816C71.4534 63.816 71.6061 63.8377 71.7709 63.9071C71.934 63.9758 72.0425 64.0631 72.098 64.1187L67.8554 68.3613C68.7841 69.29 69.996 69.816 71.3447 69.816V63.816ZM72.098 64.1187C72.1536 64.1742 72.2409 64.2827 72.3096 64.4458C72.379 64.6106 72.4007 64.7634 72.4007 64.872H66.4007C66.4007 66.2207 66.9267 67.4327 67.8554 68.3613L72.098 64.1187ZM120.496 57.312L118.128 59.1538L118.128 59.1538L120.496 57.312ZM140.008 67.68L138.101 65.3642L138.094 65.3698L138.087 65.3753L140.008 67.68ZM106.816 67.68L104.879 69.9712L104.894 69.9836L104.909 69.9958L106.816 67.68ZM107.032 25.992L108.913 28.3294L108.916 28.3268L107.032 25.992ZM139.792 25.992L137.895 28.3162L137.91 28.3281L137.924 28.3398L139.792 25.992ZM116.488 39.456V53.928H122.488V39.456H116.488ZM116.488 53.928C116.488 55.8033 116.946 57.6345 118.128 59.1538L122.864 55.4702C122.702 55.2615 122.488 54.8367 122.488 53.928H116.488ZM118.128 59.1538C119.476 60.8872 121.417 61.608 123.448 61.608V55.608C123.131 55.608 122.986 55.5555 122.944 55.5371C122.917 55.5253 122.9 55.5162 122.864 55.4702L118.128 59.1538ZM123.448 61.608C125.479 61.608 127.42 60.8872 128.768 59.1538L124.032 55.4702C123.996 55.5162 123.979 55.5253 123.952 55.5371C123.91 55.5555 123.765 55.608 123.448 55.608V61.608ZM128.768 59.1538C129.95 57.6345 130.408 55.8033 130.408 53.928H124.408C124.408 54.8367 124.194 55.2615 124.032 55.4702L128.768 59.1538ZM130.408 53.928V39.456H124.408V53.928H130.408ZM130.408 39.456C130.408 37.5446 130.014 35.5517 128.708 34.0082C127.321 32.3687 125.374 31.776 123.448 31.776V37.776C123.819 37.776 124.009 37.8315 124.081 37.8597C124.099 37.8667 124.11 37.8724 124.117 37.8758C124.123 37.8792 124.126 37.8812 124.126 37.8813C124.126 37.8814 124.125 37.881 124.125 37.8805C124.124 37.8799 124.125 37.8807 124.128 37.8838C124.142 37.9003 124.408 38.2474 124.408 39.456H130.408ZM123.448 31.776C121.522 31.776 119.575 32.3687 118.188 34.0082C116.882 35.5517 116.488 37.5446 116.488 39.456H122.488C122.488 38.2474 122.754 37.9003 122.768 37.8838C122.771 37.8807 122.772 37.8799 122.771 37.8805C122.771 37.881 122.77 37.8814 122.77 37.8813C122.77 37.8812 122.773 37.8792 122.779 37.8758C122.786 37.8724 122.797 37.8667 122.815 37.8597C122.887 37.8315 123.077 37.776 123.448 37.776V31.776ZM143.128 40.176V53.352H149.128V40.176H143.128ZM143.128 53.352C143.128 58.8188 141.367 62.6747 138.101 65.3642L141.915 69.9958C146.809 65.9653 149.128 60.2692 149.128 53.352H143.128ZM138.087 65.3753C134.752 68.1548 129.991 69.72 123.448 69.72V75.72C130.921 75.72 137.2 73.9252 141.929 69.9847L138.087 65.3753ZM123.448 69.72C116.907 69.72 112.113 68.1557 108.723 65.3642L104.909 69.9958C109.679 73.9243 115.972 75.72 123.448 75.72V69.72ZM108.753 65.3888C105.52 62.6563 103.768 58.7427 103.768 53.208H97.768C97.768 60.1533 100.048 65.8877 104.879 69.9712L108.753 65.3888ZM103.768 53.208V40.32H97.768V53.208H103.768ZM103.768 40.32C103.768 34.878 105.559 31.0275 108.913 28.3294L105.151 23.6546C100.153 27.6765 97.768 33.378 97.768 40.32H103.768ZM108.916 28.3268C112.489 25.4439 117.246 23.88 123.448 23.88V17.88C116.21 17.88 110.023 19.724 105.148 23.6572L108.916 28.3268ZM123.448 23.88C129.652 23.88 134.376 25.4445 137.895 28.3162L141.689 23.6677C136.856 19.7235 130.684 17.88 123.448 17.88V23.88ZM137.924 28.3398C141.334 31.0521 143.128 34.8602 143.128 40.176H149.128C149.128 33.2998 146.698 27.6519 141.66 23.6442L137.924 28.3398ZM169.922 56.16L167.8 58.2813L167.8 58.2813L169.922 56.16ZM169.922 71.424L167.8 69.3027L167.8 69.3027L169.922 71.424ZM156.026 58.584H168.554V52.584H156.026V58.584ZM168.554 58.584C168.445 58.584 168.292 58.5623 168.128 58.4929C167.964 58.4242 167.856 58.3369 167.8 58.2813L172.043 54.0387C171.114 53.11 169.902 52.584 168.554 52.584V58.584ZM167.8 58.2813C167.745 58.2258 167.657 58.1173 167.589 57.9542C167.519 57.7894 167.498 57.6366 167.498 57.528H173.498C173.498 56.1793 172.972 54.9673 172.043 54.0387L167.8 58.2813ZM167.498 57.528V70.056H173.498V57.528H167.498ZM167.498 70.056C167.498 69.9474 167.519 69.7946 167.589 69.6298C167.657 69.4667 167.745 69.3582 167.8 69.3027L172.043 73.5453C172.972 72.6167 173.498 71.4047 173.498 70.056H167.498ZM167.8 69.3027C167.856 69.2471 167.964 69.1598 168.128 69.0911C168.292 69.0217 168.445 69 168.554 69V75C169.902 75 171.114 74.474 172.043 73.5453L167.8 69.3027ZM168.554 69H156.026V75H168.554V69ZM156.026 69C156.134 69 156.287 69.0217 156.452 69.0911C156.615 69.1598 156.723 69.2471 156.779 69.3027L152.536 73.5453C153.465 74.474 154.677 75 156.026 75V69ZM156.779 69.3027C156.835 69.3582 156.922 69.4667 156.991 69.6298C157.06 69.7946 157.082 69.9474 157.082 70.056H151.082C151.082 71.4047 151.608 72.6167 152.536 73.5453L156.779 69.3027ZM157.082 70.056V57.528H151.082V70.056H157.082ZM157.082 57.528C157.082 57.6366 157.06 57.7894 156.991 57.9542C156.922 58.1173 156.835 58.2258 156.779 58.2813L152.536 54.0387C151.608 54.9673 151.082 56.1793 151.082 57.528H157.082ZM156.779 58.2813C156.723 58.3369 156.615 58.4242 156.452 58.4929C156.287 58.5623 156.134 58.584 156.026 58.584V52.584C154.677 52.584 153.465 53.11 152.536 54.0387L156.779 58.2813ZM197.545 56.448L195.177 58.2898L195.177 58.2898L197.545 56.448ZM199.417 58.32L197.753 60.8161L197.828 60.866L197.905 60.9113L199.417 58.32ZM205.033 57.672L207.089 59.8566L207.093 59.853L205.033 57.672ZM205.105 51.264L202.863 53.2571L202.893 53.2909L202.924 53.3239L205.105 51.264ZM198.913 50.832L197.249 48.3359L197.216 48.358L197.183 48.3811L198.913 50.832ZM181.849 51.264L179.571 53.2164L179.721 53.3916L179.897 53.5418L181.849 51.264ZM181.417 49.752L178.436 49.418L178.417 49.5845V49.752H181.417ZM184.297 24.048L181.318 23.6975L181.317 23.7057L181.316 23.714L184.297 24.048ZM198.265 35.64V32.64H195.584L195.284 35.3041L198.265 35.64ZM197.689 40.752L194.708 40.4161L193.977 46.9042L199.376 43.2328L197.689 40.752ZM219.505 43.128L217.491 45.3519L217.507 45.3661L217.523 45.3801L219.505 43.128ZM218.857 67.68L220.809 69.9578L220.809 69.9578L218.857 67.68ZM184.801 68.256L182.965 70.6286L182.981 70.6407L182.996 70.6526L184.801 68.256ZM179.185 55.656L181.306 57.7773L181.306 57.7773L179.185 55.656ZM195.177 58.2898C195.946 59.2784 196.799 60.1805 197.753 60.8161L201.081 55.8238C200.883 55.6915 200.488 55.3456 199.913 54.6062L195.177 58.2898ZM197.905 60.9113C199.163 61.6451 200.664 61.824 202.009 61.824V55.824C201.57 55.824 201.265 55.7912 201.07 55.7532C200.869 55.7141 200.849 55.6824 200.929 55.7287L197.905 60.9113ZM202.009 61.824C203.914 61.824 205.675 61.1877 207.089 59.8566L202.977 55.4874C202.759 55.6923 202.504 55.824 202.009 55.824V61.824ZM207.093 59.853C208.615 58.4157 209.329 56.5423 209.329 54.504H203.329C203.329 55.0577 203.179 55.2963 202.973 55.491L207.093 59.853ZM209.329 54.504C209.329 52.5177 208.678 50.6777 207.286 49.2041L202.924 53.3239C203.164 53.5783 203.329 53.8983 203.329 54.504H209.329ZM207.347 49.2709C205.961 47.7112 204.109 46.968 202.081 46.968V52.968C202.549 52.968 202.713 53.0888 202.863 53.2571L207.347 49.2709ZM202.081 46.968C200.362 46.968 198.698 47.3699 197.249 48.3359L200.577 53.3281C200.856 53.1421 201.304 52.968 202.081 52.968V46.968ZM197.183 48.3811C197.006 48.506 196.857 48.6068 196.733 48.6865C196.607 48.7673 196.521 48.8178 196.468 48.8463C196.443 48.86 196.433 48.8648 196.436 48.8633C196.438 48.8623 196.464 48.8501 196.51 48.833C196.553 48.8168 196.638 48.7869 196.758 48.7593C196.872 48.7331 197.071 48.696 197.329 48.696V54.696C197.916 54.696 198.388 54.5368 198.616 54.451C198.889 54.3486 199.137 54.225 199.342 54.1137C199.751 53.8904 200.194 53.6002 200.643 53.2829L197.183 48.3811ZM197.329 48.696H183.001V54.696H197.329V48.696ZM183.001 48.696C183.125 48.696 183.28 48.7181 183.442 48.779C183.604 48.8396 183.724 48.9201 183.801 48.9862L179.897 53.5418C180.762 54.2834 181.834 54.696 183.001 54.696V48.696ZM184.127 49.3116C184.193 49.3888 184.273 49.5091 184.334 49.6706C184.395 49.8332 184.417 49.9877 184.417 50.112H178.417C178.417 51.279 178.83 52.3512 179.571 53.2164L184.127 49.3116ZM184.417 50.112V49.752H178.417V50.112H184.417ZM184.398 50.086L187.278 24.382L181.316 23.714L178.436 49.418L184.398 50.086ZM187.276 24.3985C187.295 24.2375 187.321 24.1973 187.305 24.2325C187.296 24.2516 187.277 24.2877 187.244 24.3334C187.21 24.3797 187.166 24.4279 187.114 24.4733C187.062 24.5186 187.011 24.5532 186.965 24.5779C186.921 24.6023 186.889 24.6134 186.878 24.6169C186.859 24.6228 186.922 24.6 187.105 24.6V18.6C185.798 18.6 184.353 18.9207 183.172 19.9507C181.981 20.9889 181.472 22.3857 181.318 23.6975L187.276 24.3985ZM187.105 24.6H219.289V18.6H187.105V24.6ZM219.289 24.6C219.18 24.6 219.028 24.5783 218.863 24.5089C218.7 24.4402 218.591 24.3529 218.536 24.2973L222.778 20.0547C221.85 19.126 220.638 18.6 219.289 18.6V24.6ZM218.536 24.2973C218.48 24.2418 218.393 24.1333 218.324 23.9702C218.255 23.8054 218.233 23.6526 218.233 23.544H224.233C224.233 22.1953 223.707 20.9833 222.778 20.0547L218.536 24.2973ZM218.233 23.544V33.696H224.233V23.544H218.233ZM218.233 33.696C218.233 33.5874 218.255 33.4346 218.324 33.2698C218.393 33.1067 218.48 32.9982 218.536 32.9427L222.778 37.1853C223.707 36.2567 224.233 35.0447 224.233 33.696H218.233ZM218.536 32.9427C218.591 32.8871 218.7 32.7998 218.863 32.7311C219.028 32.6617 219.18 32.64 219.289 32.64V38.64C220.638 38.64 221.85 38.114 222.778 37.1853L218.536 32.9427ZM219.289 32.64H198.265V38.64H219.289V32.64ZM195.284 35.3041L194.708 40.4161L200.67 41.0879L201.246 35.9759L195.284 35.3041ZM199.376 43.2328C201.095 42.064 203.758 41.304 207.697 41.304V35.304C203.092 35.304 199.083 36.176 196.002 38.2712L199.376 43.2328ZM207.697 41.304C211.189 41.304 214.426 42.5765 217.491 45.3519L221.518 40.9041C217.48 37.2475 212.844 35.304 207.697 35.304V41.304ZM217.523 45.3801C220.46 47.9651 221.905 51.1694 221.905 55.224H227.905C227.905 49.4866 225.749 44.6269 221.487 40.8759L217.523 45.3801ZM221.905 55.224C221.905 59.1062 220.343 62.4548 216.905 65.4022L220.809 69.9578C225.435 65.9932 227.905 61.0378 227.905 55.224H221.905ZM216.905 65.4022C213.59 68.2434 208.712 69.864 201.865 69.864V75.864C209.61 75.864 216.06 74.0286 220.809 69.9578L216.905 65.4022ZM201.865 69.864C194.95 69.864 189.984 68.4035 186.605 65.8594L182.996 70.6526C187.778 74.2525 194.188 75.864 201.865 75.864V69.864ZM186.637 65.8834C183.24 63.255 181.753 60.2492 181.753 56.736H175.753C175.753 62.3428 178.298 67.017 182.965 70.6286L186.637 65.8834ZM181.753 56.736C181.753 56.8582 181.731 57.0435 181.646 57.2562C181.56 57.4723 181.435 57.6488 181.306 57.7773L177.064 53.5347C176.176 54.4221 175.753 55.5619 175.753 56.736H181.753ZM181.306 57.7773C181.245 57.8387 181.121 57.9419 180.927 58.0265C180.729 58.1135 180.522 58.152 180.337 58.152V52.152C179.026 52.152 177.9 52.6978 177.064 53.5347L181.306 57.7773ZM180.337 58.152H194.881V52.152H180.337V58.152ZM194.881 58.152C194.961 58.152 195.009 58.1597 195.033 58.1648C195.045 58.1675 195.052 58.1698 195.056 58.1711C195.06 58.1725 195.062 58.1733 195.063 58.1737C195.063 58.1741 195.065 58.1748 195.067 58.1765C195.07 58.1782 195.075 58.1818 195.083 58.1886C195.099 58.2016 195.132 58.2315 195.177 58.2898L199.913 54.6062C198.667 53.0041 196.901 52.152 194.881 52.152V58.152Z" fill="black"/>
<defs>
<linearGradient id="paint0_linear" x1="99.9224" y1="149.826" x2="47.6761" y2="9.23683" gradientUnits="userSpaceOnUse">
<stop stop-color="#EFC492"/>
<stop offset="1" stop-color="#B76A11"/>
</linearGradient>
</defs>
</svg>
