<svg width="166" height="127" viewBox="0 0 166 127" fill="none" xmlns="http://www.w3.org/2000/svg">
<path d="M119.541 74.6533C125.87 45.7433 106.805 17.3133 76.9589 11.1533C47.1128 4.99335 17.7875 23.436 11.4589 52.346C5.13032 81.2561 24.195 109.686 54.0411 115.846C83.8872 122.006 113.213 103.563 119.541 74.6533Z" fill="url(#paint0_linear)"/>
<path d="M51.6654 77.253C52.2745 74.478 50.4453 71.7502 47.5797 71.1604C44.7142 70.5705 41.8975 72.342 41.2884 75.117C40.6793 77.892 42.5085 80.6198 45.374 81.2096C48.2396 81.7995 51.0563 80.028 51.6654 77.253Z" fill="#894A00"/>
<path d="M45.5267 61.9864C46.1358 59.2114 44.3066 56.4836 41.4411 55.8938C38.5755 55.3039 35.7588 57.0753 35.1497 59.8504C34.5406 62.6254 36.3698 65.3532 39.2354 65.943C42.1009 66.5329 44.9176 64.7614 45.5267 61.9864Z" fill="#894A00"/>
<path d="M79.3148 105.701C79.9239 102.926 78.0947 100.198 75.2292 99.6086C72.3636 99.0188 69.5469 100.79 68.9378 103.565C68.3287 106.34 70.1579 109.068 73.0235 109.658C75.889 110.248 78.7057 108.476 79.3148 105.701Z" fill="#894A00"/>
<path d="M77.6517 72.0997C78.2608 69.3247 76.4316 66.5969 73.5661 66.007C70.7005 65.4172 67.8838 67.1886 67.2747 69.9637C66.6656 72.7387 68.4948 75.4664 71.3604 76.0563C74.2259 76.6461 77.0426 74.8747 77.6517 72.0997Z" fill="#894A00"/>
<path d="M121.604 65.3907C122.213 62.6157 120.384 59.8879 117.518 59.2981C114.653 58.7082 111.836 60.4796 111.227 63.2547C110.618 66.0297 112.447 68.7575 115.313 69.3473C118.178 69.9372 120.995 68.1657 121.604 65.3907Z" fill="#894A00"/>
<path d="M108.933 94.293C109.542 91.518 107.713 88.7903 104.847 88.2004C101.982 87.6106 99.1651 89.382 98.556 92.157C97.9469 94.932 99.7761 97.6598 102.642 98.2497C105.507 98.8395 108.324 97.0681 108.933 94.293Z" fill="#894A00"/>
<path d="M100.289 22.4923C100.899 19.7172 99.0693 16.9895 96.2038 16.3996C93.3382 15.8098 90.5215 17.5812 89.9124 20.3562C89.3033 23.1313 91.1325 25.859 93.9981 26.4489C96.8636 27.0387 99.6803 25.2673 100.289 22.4923Z" fill="#894A00"/>
<path d="M40.9896 99.1251C41.5987 96.3501 39.7695 93.6223 36.904 93.0324C34.0384 92.4426 31.2217 94.214 30.6126 96.989C30.0035 99.7641 31.8327 102.492 34.6983 103.082C37.5638 103.672 40.3805 101.9 40.9896 99.1251Z" fill="#894A00"/>
<path d="M112.935 51.3536C113.544 48.5786 111.715 45.8508 108.849 45.261C105.984 44.6711 103.167 46.4425 102.558 49.2176C101.949 51.9926 103.778 54.7204 106.644 55.3102C109.509 55.9001 112.326 54.1286 112.935 51.3536Z" fill="#894A00"/>
<path d="M102.048 76.2452C102.657 73.4702 100.828 70.7424 97.9626 70.1526C95.097 69.5627 92.2803 71.3341 91.6712 74.1092C91.0621 76.8842 92.8913 79.612 95.7569 80.2018C98.6224 80.7917 101.439 79.0202 102.048 76.2452Z" fill="#894A00"/>
<path d="M50.6742 38.5372C51.2833 35.7622 49.4541 33.0344 46.5885 32.4445C43.723 31.8547 40.9063 33.6261 40.2972 36.4012C39.6881 39.1762 41.5173 41.9039 44.3828 42.4938C47.2484 43.0836 50.0651 41.3122 50.6742 38.5372Z" fill="#894A00"/>
<path d="M56.4193 22.6514C57.0284 19.8764 55.1992 17.1487 52.3337 16.5588C49.4681 15.969 46.6514 17.7404 46.0423 20.5154C45.4332 23.2904 47.2624 26.0182 50.128 26.6081C52.9935 27.1979 55.8102 25.4265 56.4193 22.6514Z" fill="#894A00"/>
<path d="M60.18 54.9356C60.7891 52.1606 58.9599 49.4328 56.0944 48.843C53.2289 48.2531 50.4121 50.0246 49.803 52.7996C49.194 55.5746 51.0232 58.3024 53.8887 58.8922C56.7542 59.4821 59.571 57.7107 60.18 54.9356Z" fill="#894A00"/>
<path d="M95.0131 42.4132C95.6221 39.6381 93.7929 36.9104 90.9274 36.3205C88.0619 35.7307 85.2451 37.5021 84.6361 40.2771C84.027 43.0522 85.8562 45.7799 88.7217 46.3698C91.5872 46.9596 94.404 45.1882 95.0131 42.4132Z" fill="#894A00"/>
<path d="M87.3529 93.7901C87.962 91.0151 86.1328 88.2873 83.2672 87.6975C80.4017 87.1076 77.585 88.8791 76.9759 91.6541C76.3668 94.4291 78.196 97.1569 81.0615 97.7467C83.9271 98.3366 86.7438 96.5651 87.3529 93.7901Z" fill="#894A00"/>
<path d="M29.4418 79.6807C30.0509 76.9057 28.2216 74.178 25.3561 73.5881C22.4906 72.9983 19.6739 74.7697 19.0648 77.5447C18.4557 80.3197 20.2849 83.0475 23.1504 83.6374C26.0159 84.2272 28.8327 82.4558 29.4418 79.6807Z" fill="#894A00"/>
<path d="M58.9935 101.519C59.6026 98.7436 57.7734 96.0158 54.9079 95.426C52.0423 94.8361 49.2256 96.6076 48.6165 99.3826C48.0074 102.158 49.8366 104.885 52.7022 105.475C55.5677 106.065 58.3844 104.294 58.9935 101.519Z" fill="#894A00"/>
<path d="M28.1459 44.4034C28.755 41.6284 26.9257 38.9006 24.0602 38.3108C21.1947 37.7209 18.378 39.4923 17.7689 42.2674C17.1598 45.0424 18.989 47.7702 21.8545 48.36C24.72 48.9499 27.5368 47.1784 28.1459 44.4034Z" fill="#894A00"/>
<path d="M73.7152 26.212C74.3243 23.437 72.4951 20.7092 69.6296 20.1194C66.764 19.5295 63.9473 21.3009 63.3382 24.076C62.7291 26.851 64.5583 29.5788 67.4239 30.1686C70.2894 30.7585 73.1061 28.987 73.7152 26.212Z" fill="#894A00"/>
<path d="M67.9222 87.6016C68.5313 84.8266 66.7021 82.0988 63.8366 81.509C60.9711 80.9191 58.1543 82.6906 57.5452 85.4656C56.9361 88.2406 58.7654 90.9684 61.6309 91.5583C64.4964 92.1481 67.3131 90.3767 67.9222 87.6016Z" fill="#894A00"/>
<path d="M37.2875 27.4669C37.8966 24.6919 36.0673 21.9641 33.2018 21.3742C30.3363 20.7844 27.5196 22.5558 26.9105 25.3308C26.3014 28.1059 28.1306 30.8336 30.9961 31.4235C33.8616 32.0133 36.6784 30.2419 37.2875 27.4669Z" fill="#894A00"/>
<path d="M80.3343 51.6456C80.9434 48.8706 79.1142 46.1428 76.2487 45.5529C73.3832 44.9631 70.5664 46.7345 69.9573 49.5096C69.3483 52.2846 71.1775 55.0123 74.043 55.6022C76.9085 56.192 79.7253 54.4206 80.3343 51.6456Z" fill="#894A00"/>
<path d="M24.1019 62.8272C24.711 60.0522 22.8818 57.3244 20.0163 56.7346C17.1507 56.1447 14.334 57.9162 13.7249 60.6912C13.1158 63.4662 14.945 66.194 17.8106 66.7838C20.6761 67.3737 23.4928 65.6023 24.1019 62.8272Z" fill="#894A00"/>
<path d="M111.4 66.336C111.592 66.576 111.688 66.912 111.688 67.344C111.688 67.776 111.52 68.16 111.184 68.496C110.848 68.832 110.44 69 109.96 69H96.1356C95.2716 69 94.5516 68.592 93.9756 67.776L89.2236 60.792L84.2556 67.776C83.7276 68.592 83.0076 69 82.0956 69H68.6316C68.1516 69 67.7436 68.832 67.4076 68.496C67.0716 68.16 66.9036 67.776 66.9036 67.344C66.9036 66.912 66.9996 66.576 67.1916 66.336L78.8556 49.704L68.4876 34.224C68.2956 33.936 68.1996 33.6 68.1996 33.216C68.1996 32.784 68.3676 32.4 68.7036 32.064C69.0396 31.728 69.4476 31.56 69.9276 31.56H83.1036C84.0156 31.56 84.7836 32.016 85.4076 32.928L89.5836 39.336L93.7596 32.928C94.3836 32.016 95.1516 31.56 96.0636 31.56H108.664C109.144 31.56 109.552 31.728 109.888 32.064C110.224 32.4 110.392 32.784 110.392 33.216C110.392 33.6 110.296 33.936 110.104 34.224L99.5196 49.632L111.4 66.336ZM160.259 54.168C160.787 54.168 161.243 54.36 161.627 54.744C162.011 55.128 162.203 55.584 162.203 56.112V67.056C162.203 67.584 162.011 68.04 161.627 68.424C161.243 68.808 160.787 69 160.259 69H117.923C117.395 69 116.939 68.808 116.555 68.424C116.171 68.04 115.979 67.584 115.979 67.056V59.568C115.979 57.84 116.579 56.544 117.779 55.68C127.955 48.336 134.123 43.728 136.283 41.856C139.691 38.88 141.395 36.48 141.395 34.656C141.395 33.168 141.011 32.28 140.243 31.992C139.859 31.848 139.427 31.776 138.947 31.776C138.515 31.776 138.131 31.824 137.795 31.92C137.507 31.968 137.243 32.064 137.003 32.208C136.763 32.304 136.547 32.448 136.355 32.64C136.163 32.832 135.995 33 135.851 33.144C135.755 33.288 135.635 33.504 135.491 33.792C135.347 34.08 135.251 34.296 135.203 34.44C134.963 35.016 134.843 35.352 134.843 35.448C134.459 36.552 133.499 37.104 131.963 37.104H118.427C117.995 37.104 117.611 36.96 117.275 36.672C116.987 36.336 116.843 35.952 116.843 35.52C116.843 30.192 118.907 25.872 123.035 22.56C127.211 19.248 132.515 17.592 138.947 17.592C145.427 17.592 150.587 19.032 154.427 21.912C158.315 24.744 160.259 28.68 160.259 33.72C160.259 37.512 158.939 40.944 156.299 44.016C153.659 47.088 149.627 50.472 144.203 54.168H160.259Z" fill="#A73131"/>
<path d="M111.4 66.336L108.955 68.0747L109.004 68.1439L109.057 68.2101L111.4 66.336ZM111.184 68.496L109.062 66.3747L109.062 66.3747L111.184 68.496ZM93.9756 67.776L91.4953 69.4636L91.5098 69.485L91.5247 69.5061L93.9756 67.776ZM89.2236 60.792L91.7039 59.1044L89.2783 55.5395L86.779 59.0531L89.2236 60.792ZM84.2556 67.776L81.811 66.0371L81.7727 66.0908L81.7369 66.1462L84.2556 67.776ZM67.4076 68.496L69.5289 66.3747L69.5289 66.3747L67.4076 68.496ZM67.1916 66.336L69.5342 68.2101L69.5934 68.1361L69.6478 68.0585L67.1916 66.336ZM78.8556 49.704L81.3118 51.4265L82.4924 49.743L81.3482 48.0346L78.8556 49.704ZM68.4876 34.224L65.9914 35.8881L65.995 35.8934L68.4876 34.224ZM68.7036 32.064L70.8249 34.1853L70.8249 34.1853L68.7036 32.064ZM85.4076 32.928L87.921 31.2901L87.9026 31.2618L87.8835 31.2339L85.4076 32.928ZM89.5836 39.336L87.0702 40.9739L89.5836 44.8307L92.097 40.9739L89.5836 39.336ZM93.7596 32.928L91.2837 31.2339L91.2646 31.2618L91.2462 31.2901L93.7596 32.928ZM110.104 34.224L112.576 35.9226L112.588 35.9054L112.6 35.8881L110.104 34.224ZM99.5196 49.632L97.0468 47.9334L95.8595 49.6619L97.0748 51.3707L99.5196 49.632ZM109.057 68.2101C108.873 67.9798 108.777 67.7545 108.731 67.5922C108.708 67.5133 108.698 67.4509 108.693 67.4101C108.688 67.3694 108.688 67.3463 108.688 67.344H114.688C114.688 66.5021 114.503 65.4128 113.742 64.4619L109.057 68.2101ZM108.688 67.344C108.688 67.1591 108.726 66.9525 108.813 66.7535C108.898 66.5601 109.001 66.4361 109.062 66.3747L113.305 70.6173C114.142 69.7805 114.688 68.655 114.688 67.344H108.688ZM109.062 66.3747C109.153 66.2844 109.294 66.1781 109.483 66.1C109.672 66.0221 109.842 66 109.96 66V72C111.226 72 112.4 71.5223 113.305 70.6173L109.062 66.3747ZM109.96 66H96.1356V72H109.96V66ZM96.1356 66C96.1578 66 96.2031 66.0029 96.2629 66.0183C96.3234 66.0339 96.3798 66.0574 96.4266 66.0839C96.5229 66.1385 96.5113 66.1661 96.4265 66.0459L91.5247 69.5061C92.5619 70.9755 94.1341 72 96.1356 72V66ZM96.4559 66.0884L91.7039 59.1044L86.7433 62.4796L91.4953 69.4636L96.4559 66.0884ZM86.779 59.0531L81.811 66.0371L86.7002 69.5149L91.6682 62.5309L86.779 59.0531ZM81.7369 66.1462C81.6897 66.2192 81.7125 66.1565 81.8406 66.0839C81.9002 66.0501 81.9614 66.0267 82.016 66.0131C82.069 65.9998 82.0988 66 82.0956 66V72C84.1028 72 85.737 71.0089 86.7743 69.4058L81.7369 66.1462ZM82.0956 66H68.6316V72H82.0956V66ZM68.6316 66C68.7488 66 68.9188 66.0221 69.1078 66.1C69.2975 66.1781 69.4386 66.2844 69.5289 66.3747L65.2863 70.6173C66.1913 71.5223 67.365 72 68.6316 72V66ZM69.5289 66.3747C69.5903 66.4361 69.6934 66.5601 69.7781 66.7535C69.8651 66.9525 69.9036 67.1591 69.9036 67.344H63.9036C63.9036 68.655 64.4494 69.7805 65.2863 70.6173L69.5289 66.3747ZM69.9036 67.344C69.9036 67.3463 69.9035 67.3694 69.8984 67.4101C69.8933 67.4509 69.8827 67.5133 69.8602 67.5922C69.8138 67.7545 69.7184 67.9798 69.5342 68.2101L64.849 64.4619C64.0883 65.4128 63.9036 66.5021 63.9036 67.344H69.9036ZM69.6478 68.0585L81.3118 51.4265L76.3994 47.9815L64.7354 64.6135L69.6478 68.0585ZM81.3482 48.0346L70.9802 32.5546L65.995 35.8934L76.363 51.3734L81.3482 48.0346ZM70.9837 32.5599C71.0615 32.6766 71.1197 32.8044 71.1562 32.9318C71.1919 33.0569 71.1996 33.1565 71.1996 33.216H65.1996C65.1996 34.125 65.4355 35.0541 65.9914 35.8881L70.9837 32.5599ZM71.1996 33.216C71.1996 33.4009 71.1611 33.6075 71.0741 33.8065C70.9894 33.9999 70.8863 34.1239 70.8249 34.1853L66.5823 29.9427C65.7454 30.7795 65.1996 31.905 65.1996 33.216H71.1996ZM70.8249 34.1853C70.7346 34.2756 70.5935 34.3819 70.4038 34.46C70.2148 34.5379 70.0448 34.56 69.9276 34.56V28.56C68.661 28.56 67.4873 29.0377 66.5823 29.9427L70.8249 34.1853ZM69.9276 34.56H83.1036V28.56H69.9276V34.56ZM83.1036 34.56C83.0789 34.56 83.0329 34.5565 82.9747 34.5407C82.9162 34.5249 82.867 34.5024 82.832 34.4816C82.7624 34.4402 82.8092 34.443 82.9317 34.622L87.8835 31.2339C86.8352 29.7018 85.223 28.56 83.1036 28.56V34.56ZM82.8942 34.5659L87.0702 40.9739L92.097 37.6981L87.921 31.2901L82.8942 34.5659ZM92.097 40.9739L96.273 34.5659L91.2462 31.2901L87.0702 37.6981L92.097 40.9739ZM96.2355 34.622C96.358 34.443 96.4048 34.4402 96.3352 34.4816C96.3002 34.5024 96.251 34.5249 96.1924 34.5407C96.1343 34.5565 96.0883 34.56 96.0636 34.56V28.56C93.9442 28.56 92.332 29.7018 91.2837 31.2339L96.2355 34.622ZM96.0636 34.56H108.664V28.56H96.0636V34.56ZM108.664 34.56C108.546 34.56 108.376 34.5379 108.187 34.46C107.998 34.3819 107.857 34.2756 107.766 34.1853L112.009 29.9427C111.104 29.0377 109.93 28.56 108.664 28.56V34.56ZM107.766 34.1853C107.705 34.1239 107.602 33.9999 107.517 33.8065C107.43 33.6075 107.392 33.4009 107.392 33.216H113.392C113.392 31.905 112.846 30.7795 112.009 29.9427L107.766 34.1853ZM107.392 33.216C107.392 33.1565 107.399 33.0569 107.435 32.9318C107.471 32.8044 107.53 32.6766 107.607 32.5599L112.6 35.8881C113.156 35.0541 113.392 34.125 113.392 33.216H107.392ZM107.631 32.5254L97.0468 47.9334L101.992 51.3306L112.576 35.9226L107.631 32.5254ZM97.0748 51.3707L108.955 68.0747L113.844 64.5973L101.964 47.8933L97.0748 51.3707ZM161.627 54.744L159.506 56.8653L159.506 56.8653L161.627 54.744ZM161.627 68.424L159.506 66.3027L159.506 66.3027L161.627 68.424ZM116.555 68.424L118.676 66.3027L118.676 66.3027L116.555 68.424ZM117.779 55.68L119.532 58.1146L119.535 58.1126L117.779 55.68ZM136.283 41.856L138.248 44.1231L138.256 44.1157L136.283 41.856ZM140.243 31.992L139.19 34.801L139.19 34.801L140.243 31.992ZM137.795 31.92L138.288 34.8792L138.456 34.8512L138.619 34.8046L137.795 31.92ZM137.003 32.208L138.117 34.9934L138.34 34.9041L138.546 34.7805L137.003 32.208ZM136.355 32.64L138.476 34.7613L138.476 34.7613L136.355 32.64ZM135.851 33.144L133.73 31.0227L133.52 31.2327L133.355 31.4799L135.851 33.144ZM135.203 34.44L137.972 35.5938L138.014 35.4927L138.049 35.3887L135.203 34.44ZM134.843 35.448L137.676 36.4336L137.843 35.9548V35.448H134.843ZM117.275 36.672L114.997 38.6244L115.147 38.7996L115.323 38.9498L117.275 36.672ZM123.035 22.56L121.171 20.2095L121.164 20.2148L121.158 20.22L123.035 22.56ZM154.427 21.912L152.627 24.312L152.644 24.3246L152.661 24.3369L154.427 21.912ZM156.299 44.016L158.574 45.9713L158.574 45.9713L156.299 44.016ZM144.203 54.168L142.514 51.6889L134.473 57.168H144.203V54.168ZM160.259 57.168C160.15 57.168 159.998 57.1463 159.833 57.0769C159.67 57.0082 159.561 56.9209 159.506 56.8653L163.748 52.6227C162.82 51.694 161.608 51.168 160.259 51.168V57.168ZM159.506 56.8653C159.45 56.8098 159.363 56.7013 159.294 56.5382C159.225 56.3734 159.203 56.2206 159.203 56.112H165.203C165.203 54.7633 164.677 53.5513 163.748 52.6227L159.506 56.8653ZM159.203 56.112V67.056H165.203V56.112H159.203ZM159.203 67.056C159.203 66.9474 159.225 66.7946 159.294 66.6298C159.363 66.4667 159.45 66.3582 159.506 66.3027L163.748 70.5453C164.677 69.6167 165.203 68.4047 165.203 67.056H159.203ZM159.506 66.3027C159.561 66.2471 159.67 66.1598 159.833 66.0911C159.998 66.0217 160.15 66 160.259 66V72C161.608 72 162.82 71.474 163.748 70.5453L159.506 66.3027ZM160.259 66H117.923V72H160.259V66ZM117.923 66C118.032 66 118.184 66.0217 118.349 66.0911C118.512 66.1598 118.621 66.2471 118.676 66.3027L114.434 70.5453C115.362 71.474 116.574 72 117.923 72V66ZM118.676 66.3027C118.732 66.3582 118.819 66.4667 118.888 66.6298C118.957 66.7946 118.979 66.9474 118.979 67.056H112.979C112.979 68.4047 113.505 69.6167 114.434 70.5453L118.676 66.3027ZM118.979 67.056V59.568H112.979V67.056H118.979ZM118.979 59.568C118.979 58.6191 119.254 58.3144 119.532 58.1146L116.026 53.2454C113.903 54.7736 112.979 57.0609 112.979 59.568H118.979ZM119.535 58.1126C129.663 50.8028 135.962 46.1036 138.248 44.1231L134.318 39.5889C132.283 41.3524 126.247 45.8692 116.023 53.2474L119.535 58.1126ZM138.256 44.1157C140.054 42.546 141.522 41.0266 142.563 39.5608C143.573 38.1389 144.395 36.4671 144.395 34.656H138.395C138.395 34.6448 138.397 34.7528 138.293 35.0097C138.189 35.268 137.998 35.6259 137.671 36.0872C137.008 37.0214 135.92 38.19 134.31 39.5963L138.256 44.1157ZM144.395 34.656C144.395 33.0111 144.003 30.1979 141.296 29.183L139.19 34.801C138.969 34.7184 138.766 34.5851 138.604 34.4198C138.449 34.2623 138.378 34.1224 138.353 34.0647C138.33 34.0115 138.344 34.0224 138.361 34.1311C138.379 34.238 138.395 34.4084 138.395 34.656H144.395ZM141.296 29.183C140.523 28.8932 139.727 28.776 138.947 28.776V34.776C139.127 34.776 139.194 34.8028 139.19 34.801L141.296 29.183ZM138.947 28.776C138.299 28.776 137.629 28.8473 136.971 29.0354L138.619 34.8046C138.633 34.8007 138.731 34.776 138.947 34.776V28.776ZM137.302 28.9608C136.659 29.068 136.036 29.2896 135.459 29.6355L138.546 34.7805C138.45 34.8384 138.355 34.868 138.288 34.8792L137.302 28.9608ZM135.889 29.4226C135.253 29.677 134.698 30.0542 134.234 30.5187L138.476 34.7613C138.396 34.8418 138.273 34.931 138.117 34.9934L135.889 29.4226ZM134.234 30.5187C134.042 30.7107 133.874 30.8787 133.73 31.0227L137.972 35.2653C138.116 35.1213 138.284 34.9533 138.476 34.7613L134.234 30.5187ZM133.355 31.4799C133.154 31.7805 132.969 32.1283 132.808 32.4504L138.174 35.1336C138.232 35.0176 138.278 34.9316 138.311 34.8709C138.347 34.8065 138.358 34.7911 138.347 34.8081L133.355 31.4799ZM132.808 32.4504C132.654 32.7573 132.476 33.133 132.357 33.4913L138.049 35.3887C138.038 35.4212 138.032 35.4372 138.033 35.4327C138.035 35.4293 138.04 35.4151 138.052 35.3884C138.077 35.3337 138.116 35.2504 138.174 35.1336L132.808 32.4504ZM132.434 33.2862C132.306 33.5923 132.193 33.8753 132.108 34.115C132.066 34.2323 132.017 34.3765 131.975 34.5281C131.958 34.5892 131.843 34.9767 131.843 35.448H137.843C137.843 35.5912 137.832 35.707 137.823 35.7818C137.814 35.86 137.803 35.9234 137.795 35.9673C137.778 36.0521 137.762 36.1118 137.756 36.1339C137.749 36.1598 137.744 36.1727 137.746 36.1688C137.747 36.1659 137.75 36.1545 137.758 36.133C137.774 36.089 137.799 36.0223 137.836 35.9285C137.872 35.836 137.918 35.7249 137.972 35.5938L132.434 33.2862ZM132.009 34.4624C132.017 34.4414 132.046 34.3699 132.118 34.282C132.19 34.1921 132.273 34.1277 132.339 34.0893C132.401 34.054 132.418 34.0582 132.359 34.0713C132.297 34.0849 132.171 34.104 131.963 34.104V40.104C133.062 40.104 134.253 39.9104 135.33 39.2907C136.473 38.6337 137.262 37.6262 137.676 36.4336L132.009 34.4624ZM131.963 34.104H118.427V40.104H131.963V34.104ZM118.427 34.104C118.551 34.104 118.706 34.1261 118.868 34.187C119.03 34.2476 119.15 34.3281 119.227 34.3942L115.323 38.9498C116.188 39.6914 117.26 40.104 118.427 40.104V34.104ZM119.553 34.7196C119.619 34.7968 119.699 34.9171 119.76 35.0786C119.821 35.2412 119.843 35.3957 119.843 35.52H113.843C113.843 36.687 114.256 37.7592 114.997 38.6244L119.553 34.7196ZM119.843 35.52C119.843 31.0947 121.5 27.6381 124.912 24.8999L121.158 20.22C116.314 24.1059 113.843 29.2893 113.843 35.52H119.843ZM124.899 24.9105C128.442 22.101 133.047 20.592 138.947 20.592V14.592C131.983 14.592 125.98 16.395 121.171 20.2095L124.899 24.9105ZM138.947 20.592C145.002 20.592 149.461 21.9376 152.627 24.312L156.227 19.512C151.713 16.1264 145.851 14.592 138.947 14.592V20.592ZM152.661 24.3369C155.731 26.5733 157.259 29.5851 157.259 33.72H163.259C163.259 27.7749 160.899 22.9147 156.193 19.4871L152.661 24.3369ZM157.259 33.72C157.259 36.7433 156.231 39.4927 154.024 42.0607L158.574 45.9713C161.647 42.3953 163.259 38.2807 163.259 33.72H157.259ZM154.024 42.0607C151.628 44.8488 147.837 48.0616 142.514 51.6889L145.892 56.6471C151.417 52.8824 155.69 49.3272 158.574 45.9713L154.024 42.0607ZM144.203 57.168H160.259V51.168H144.203V57.168Z" fill="black"/>
<defs>
<linearGradient id="paint0_linear" x1="99.9224" y1="149.826" x2="47.6761" y2="9.23683" gradientUnits="userSpaceOnUse">
<stop stop-color="#EFC492"/>
<stop offset="1" stop-color="#B76A11"/>
</linearGradient>
</defs>
</svg>
