<svg width="319" height="127" viewBox="0 0 319 127" fill="none" xmlns="http://www.w3.org/2000/svg">
<path d="M119.541 74.6533C125.87 45.7433 106.805 17.3133 76.9589 11.1533C47.1128 4.99335 17.7875 23.436 11.4589 52.346C5.13032 81.2561 24.195 109.686 54.0411 115.846C83.8872 122.006 113.213 103.563 119.541 74.6533Z" fill="url(#paint0_linear)"/>
<path d="M51.6654 77.253C52.2745 74.478 50.4453 71.7502 47.5797 71.1604C44.7142 70.5705 41.8975 72.342 41.2884 75.117C40.6793 77.892 42.5085 80.6198 45.374 81.2096C48.2396 81.7995 51.0563 80.028 51.6654 77.253Z" fill="#894A00"/>
<path d="M45.5267 61.9864C46.1358 59.2114 44.3066 56.4836 41.4411 55.8938C38.5755 55.3039 35.7588 57.0753 35.1497 59.8504C34.5406 62.6254 36.3698 65.3532 39.2354 65.943C42.1009 66.5329 44.9176 64.7614 45.5267 61.9864Z" fill="#894A00"/>
<path d="M79.3148 105.701C79.9239 102.926 78.0947 100.198 75.2292 99.6086C72.3636 99.0188 69.5469 100.79 68.9378 103.565C68.3287 106.34 70.1579 109.068 73.0235 109.658C75.889 110.248 78.7057 108.476 79.3148 105.701Z" fill="#894A00"/>
<path d="M77.6517 72.0997C78.2608 69.3247 76.4316 66.5969 73.5661 66.007C70.7005 65.4172 67.8838 67.1886 67.2747 69.9637C66.6656 72.7387 68.4948 75.4664 71.3604 76.0563C74.2259 76.6461 77.0426 74.8747 77.6517 72.0997Z" fill="#894A00"/>
<path d="M121.604 65.3907C122.213 62.6157 120.384 59.8879 117.518 59.2981C114.653 58.7082 111.836 60.4796 111.227 63.2547C110.618 66.0297 112.447 68.7575 115.313 69.3473C118.178 69.9372 120.995 68.1657 121.604 65.3907Z" fill="#894A00"/>
<path d="M108.933 94.293C109.542 91.518 107.713 88.7903 104.847 88.2004C101.982 87.6106 99.1651 89.382 98.556 92.157C97.9469 94.932 99.7761 97.6598 102.642 98.2497C105.507 98.8395 108.324 97.0681 108.933 94.293Z" fill="#894A00"/>
<path d="M100.289 22.4923C100.899 19.7172 99.0693 16.9895 96.2038 16.3996C93.3382 15.8098 90.5215 17.5812 89.9124 20.3562C89.3033 23.1313 91.1325 25.859 93.9981 26.4489C96.8636 27.0387 99.6803 25.2673 100.289 22.4923Z" fill="#894A00"/>
<path d="M40.9896 99.1251C41.5987 96.3501 39.7695 93.6223 36.904 93.0324C34.0384 92.4426 31.2217 94.214 30.6126 96.989C30.0035 99.7641 31.8327 102.492 34.6983 103.082C37.5638 103.672 40.3805 101.9 40.9896 99.1251Z" fill="#894A00"/>
<path d="M112.935 51.3536C113.544 48.5786 111.715 45.8508 108.849 45.261C105.984 44.6711 103.167 46.4425 102.558 49.2176C101.949 51.9926 103.778 54.7204 106.644 55.3102C109.509 55.9001 112.326 54.1286 112.935 51.3536Z" fill="#894A00"/>
<path d="M102.048 76.2452C102.657 73.4702 100.828 70.7424 97.9626 70.1526C95.097 69.5627 92.2803 71.3341 91.6712 74.1092C91.0621 76.8842 92.8913 79.612 95.7569 80.2018C98.6224 80.7917 101.439 79.0202 102.048 76.2452Z" fill="#894A00"/>
<path d="M50.6742 38.5372C51.2833 35.7622 49.4541 33.0344 46.5885 32.4445C43.723 31.8547 40.9063 33.6261 40.2972 36.4012C39.6881 39.1762 41.5173 41.9039 44.3828 42.4938C47.2484 43.0836 50.0651 41.3122 50.6742 38.5372Z" fill="#894A00"/>
<path d="M56.4193 22.6514C57.0284 19.8764 55.1992 17.1487 52.3337 16.5588C49.4681 15.969 46.6514 17.7404 46.0423 20.5154C45.4332 23.2904 47.2624 26.0182 50.128 26.6081C52.9935 27.1979 55.8102 25.4265 56.4193 22.6514Z" fill="#894A00"/>
<path d="M60.18 54.9356C60.7891 52.1606 58.9599 49.4328 56.0944 48.843C53.2289 48.2531 50.4121 50.0246 49.803 52.7996C49.194 55.5746 51.0232 58.3024 53.8887 58.8922C56.7542 59.4821 59.571 57.7107 60.18 54.9356Z" fill="#894A00"/>
<path d="M95.0131 42.4132C95.6221 39.6381 93.7929 36.9104 90.9274 36.3205C88.0619 35.7307 85.2451 37.5021 84.6361 40.2771C84.027 43.0522 85.8562 45.7799 88.7217 46.3698C91.5872 46.9596 94.404 45.1882 95.0131 42.4132Z" fill="#894A00"/>
<path d="M87.3529 93.7901C87.962 91.0151 86.1328 88.2873 83.2672 87.6975C80.4017 87.1076 77.585 88.8791 76.9759 91.6541C76.3668 94.4291 78.196 97.1569 81.0615 97.7467C83.9271 98.3366 86.7438 96.5651 87.3529 93.7901Z" fill="#894A00"/>
<path d="M29.4418 79.6807C30.0509 76.9057 28.2216 74.178 25.3561 73.5881C22.4906 72.9983 19.6739 74.7697 19.0648 77.5447C18.4557 80.3197 20.2849 83.0475 23.1504 83.6374C26.0159 84.2272 28.8327 82.4558 29.4418 79.6807Z" fill="#894A00"/>
<path d="M58.9935 101.519C59.6026 98.7436 57.7734 96.0158 54.9079 95.426C52.0423 94.8361 49.2256 96.6076 48.6165 99.3826C48.0074 102.158 49.8366 104.885 52.7022 105.475C55.5677 106.065 58.3844 104.294 58.9935 101.519Z" fill="#894A00"/>
<path d="M28.1459 44.4034C28.755 41.6284 26.9257 38.9006 24.0602 38.3108C21.1947 37.7209 18.378 39.4923 17.7689 42.2674C17.1598 45.0424 18.989 47.7702 21.8545 48.36C24.72 48.9499 27.5368 47.1784 28.1459 44.4034Z" fill="#894A00"/>
<path d="M73.7152 26.212C74.3243 23.437 72.4951 20.7092 69.6296 20.1194C66.764 19.5295 63.9473 21.3009 63.3382 24.076C62.7291 26.851 64.5583 29.5788 67.4239 30.1686C70.2894 30.7585 73.1061 28.987 73.7152 26.212Z" fill="#894A00"/>
<path d="M67.9222 87.6016C68.5313 84.8266 66.7021 82.0988 63.8366 81.509C60.9711 80.9191 58.1543 82.6906 57.5452 85.4656C56.9361 88.2406 58.7654 90.9684 61.6309 91.5583C64.4964 92.1481 67.3131 90.3767 67.9222 87.6016Z" fill="#894A00"/>
<path d="M37.2875 27.4669C37.8966 24.6919 36.0673 21.9641 33.2018 21.3742C30.3363 20.7844 27.5196 22.5558 26.9105 25.3308C26.3014 28.1059 28.1306 30.8336 30.9961 31.4235C33.8616 32.0133 36.6784 30.2419 37.2875 27.4669Z" fill="#894A00"/>
<path d="M80.3343 51.6456C80.9434 48.8706 79.1142 46.1428 76.2487 45.5529C73.3832 44.9631 70.5664 46.7345 69.9573 49.5096C69.3483 52.2846 71.1775 55.0123 74.043 55.6022C76.9085 56.192 79.7253 54.4206 80.3343 51.6456Z" fill="#894A00"/>
<path d="M24.1019 62.8272C24.711 60.0522 22.8818 57.3244 20.0163 56.7346C17.1507 56.1447 14.334 57.9162 13.7249 60.6912C13.1158 63.4662 14.945 66.194 17.8106 66.7838C20.6761 67.3737 23.4928 65.6023 24.1019 62.8272Z" fill="#894A00"/>
<path d="M70.8119 43.25H88.4619C88.8286 43.25 89.1452 43.3833 89.4119 43.65C89.6786 43.9167 89.8119 44.2333 89.8119 44.6V51.7C89.8119 52.0667 89.6786 52.3833 89.4119 52.65C89.1452 52.9167 88.8286 53.05 88.4619 53.05H70.8119C70.4452 53.05 70.1286 52.9167 69.8619 52.65C69.5952 52.3833 69.4619 52.0667 69.4619 51.7V44.6C69.4619 44.2333 69.5952 43.9167 69.8619 43.65C70.1286 43.3833 70.4452 43.25 70.8119 43.25ZM116.927 31.35V63.65C116.927 64.0167 116.794 64.3333 116.527 64.6C116.26 64.8667 115.944 65 115.577 65H105.777C105.41 65 105.094 64.8667 104.827 64.6C104.56 64.3333 104.427 64.0167 104.427 63.65V43.45L98.8271 47.75C98.5605 47.95 98.2605 48.05 97.9271 48.05C97.6271 48.05 97.2938 47.8167 96.9271 47.35L92.5271 41.65C92.3938 41.4167 92.3271 41.2 92.3271 41C92.3271 40.4 92.5438 39.9667 92.9771 39.7L105.027 30.35C105.36 30.1167 105.727 30 106.127 30H115.577C115.944 30 116.26 30.1333 116.527 30.4C116.794 30.6667 116.927 30.9833 116.927 31.35ZM135.403 42.4V52.45C135.403 53.4167 135.637 54.2 136.103 54.8C136.57 55.4 137.253 55.7 138.153 55.7C139.053 55.7 139.737 55.4 140.203 54.8C140.67 54.2 140.903 53.4167 140.903 52.45V42.4C140.903 40.2333 139.987 39.15 138.153 39.15C136.32 39.15 135.403 40.2333 135.403 42.4ZM153.903 42.9V52.05C153.903 56.35 152.487 59.6667 149.653 62C146.853 64.3333 143.02 65.5 138.153 65.5C133.287 65.5 129.437 64.3333 126.603 62C123.803 59.6333 122.403 56.2833 122.403 51.95V43C122.403 38.7 123.853 35.3833 126.753 33.05C129.687 30.6833 133.487 29.5 138.153 29.5C142.82 29.5 146.603 30.6833 149.503 33.05C152.437 35.3833 153.903 38.6667 153.903 42.9ZM171.927 42.4V52.45C171.927 53.4167 172.16 54.2 172.627 54.8C173.093 55.4 173.777 55.7 174.677 55.7C175.577 55.7 176.26 55.4 176.727 54.8C177.193 54.2 177.427 53.4167 177.427 52.45V42.4C177.427 40.2333 176.51 39.15 174.677 39.15C172.843 39.15 171.927 40.2333 171.927 42.4ZM190.427 42.9V52.05C190.427 56.35 189.01 59.6667 186.177 62C183.377 64.3333 179.543 65.5 174.677 65.5C169.81 65.5 165.96 64.3333 163.127 62C160.327 59.6333 158.927 56.2833 158.927 51.95V43C158.927 38.7 160.377 35.3833 163.277 33.05C166.21 30.6833 170.01 29.5 174.677 29.5C179.343 29.5 183.127 30.6833 186.027 33.05C188.96 35.3833 190.427 38.6667 190.427 42.9ZM224.6 47.45C224.067 47.45 223.6 47.65 223.2 48.05C222.834 48.45 222.65 49.05 222.65 49.85V63.65C222.65 64.0167 222.517 64.3333 222.25 64.6C221.984 64.8667 221.667 65 221.3 65H212.5C212.134 65 211.817 64.8667 211.55 64.6C211.284 64.3333 211.15 64.0167 211.15 63.65V50.2C211.15 48.3667 210.484 47.45 209.15 47.45C208.584 47.45 208.1 47.6667 207.7 48.1C207.334 48.5 207.15 49.0667 207.15 49.8V63.65C207.15 64.0167 207.017 64.3333 206.75 64.6C206.484 64.8667 206.167 65 205.8 65H196.8C196.434 65 196.117 64.8667 195.85 64.6C195.584 64.3333 195.45 64.0167 195.45 63.65V40.35C195.45 39.9833 195.584 39.6667 195.85 39.4C196.117 39.1333 196.434 39 196.8 39H205.05C205.417 39 205.734 39.1333 206 39.4C206.267 39.6667 206.4 39.9833 206.4 40.35V42C207.067 41.1333 208.017 40.35 209.25 39.65C210.617 38.8833 212.15 38.5 213.85 38.5C217.517 38.5 219.984 39.8667 221.25 42.6C222.05 41.4333 223.15 40.4667 224.55 39.7C225.95 38.9 227.4 38.5 228.9 38.5C231.6 38.5 233.8 39.45 235.5 41.35C237.234 43.25 238.1 46.0833 238.1 49.85V63.65C238.1 64.0167 237.967 64.3333 237.7 64.6C237.434 64.8667 237.117 65 236.75 65H227.95C227.584 65 227.267 64.8667 227 64.6C226.734 64.3333 226.6 64.0167 226.6 63.65V50.2C226.6 48.3667 225.934 47.45 224.6 47.45ZM256.712 57.8C256.712 57.4667 256.629 57.2 256.462 57C256.029 56.4667 254.429 55.95 251.662 55.45C248.896 54.9167 246.646 54 244.912 52.7C243.212 51.3667 242.362 49.5167 242.362 47.15C242.362 44.7833 243.496 42.75 245.762 41.05C248.029 39.35 251.079 38.5 254.912 38.5C258.779 38.5 261.946 39.3 264.412 40.9C266.879 42.5 268.112 44.1167 268.112 45.75C268.112 46.1167 267.996 46.4333 267.762 46.7C267.562 46.9667 267.312 47.1 267.012 47.1H258.612C258.112 47.1 257.496 46.8333 256.762 46.3C256.029 45.7667 255.479 45.5 255.112 45.5C254.346 45.5 253.962 45.7667 253.962 46.3C253.962 46.6333 254.046 46.9 254.212 47.1C254.646 47.6 256.462 48.0833 259.662 48.55C262.862 49.0167 265.246 50.05 266.812 51.65C268.412 53.2167 269.212 54.9667 269.212 56.9C269.212 59.6 267.996 61.7167 265.562 63.25C263.129 64.7833 259.679 65.55 255.212 65.55C252.846 65.55 250.746 65.2833 248.912 64.75C247.079 64.2167 245.679 63.55 244.712 62.75C242.812 61.1833 241.862 59.7167 241.862 58.35C241.862 57.9833 241.979 57.6667 242.212 57.4C242.446 57.1333 242.729 57 243.062 57H251.762C252.229 57 252.829 57.2667 253.562 57.8C254.329 58.3 255.046 58.55 255.712 58.55C256.379 58.55 256.712 58.3 256.712 57.8Z" fill="#A73131"/>
<path d="M89.4119 43.65L87.9977 45.0642L87.9977 45.0642L89.4119 43.65ZM89.4119 52.65L87.9977 51.2358L87.9977 51.2358L89.4119 52.65ZM69.8619 52.65L68.4477 54.0642L68.4477 54.0642L69.8619 52.65ZM69.8619 43.65L71.2761 45.0642L71.2761 45.0642L69.8619 43.65ZM70.8119 45.25H88.4619V41.25H70.8119V45.25ZM88.4619 45.25C88.3968 45.25 88.3018 45.2369 88.1983 45.1933C88.0959 45.1501 88.0294 45.0959 87.9977 45.0642L90.8261 42.2358C90.1964 41.606 89.3757 41.25 88.4619 41.25V45.25ZM87.9977 45.0642C87.966 45.0325 87.9118 44.966 87.8686 44.8636C87.8251 44.7601 87.8119 44.6651 87.8119 44.6H91.8119C91.8119 43.6862 91.4559 42.8656 90.8261 42.2358L87.9977 45.0642ZM87.8119 44.6V51.7H91.8119V44.6H87.8119ZM87.8119 51.7C87.8119 51.6349 87.8251 51.5399 87.8686 51.4364C87.9118 51.334 87.966 51.2675 87.9977 51.2358L90.8261 54.0642C91.4559 53.4344 91.8119 52.6138 91.8119 51.7H87.8119ZM87.9977 51.2358C88.0294 51.2041 88.0959 51.1498 88.1983 51.1067C88.3018 51.0631 88.3968 51.05 88.4619 51.05V55.05C89.3757 55.05 90.1964 54.694 90.8261 54.0642L87.9977 51.2358ZM88.4619 51.05H70.8119V55.05H88.4619V51.05ZM70.8119 51.05C70.877 51.05 70.972 51.0631 71.0755 51.1067C71.1779 51.1498 71.2444 51.2041 71.2761 51.2358L68.4477 54.0642C69.0775 54.694 69.8981 55.05 70.8119 55.05V51.05ZM71.2761 51.2358C71.3078 51.2675 71.3621 51.334 71.4052 51.4364C71.4488 51.5399 71.4619 51.6349 71.4619 51.7H67.4619C67.4619 52.6138 67.8179 53.4344 68.4477 54.0642L71.2761 51.2358ZM71.4619 51.7V44.6H67.4619V51.7H71.4619ZM71.4619 44.6C71.4619 44.6651 71.4488 44.7601 71.4052 44.8636C71.3621 44.966 71.3078 45.0325 71.2761 45.0642L68.4477 42.2358C67.8179 42.8656 67.4619 43.6862 67.4619 44.6H71.4619ZM71.2761 45.0642C71.2444 45.0959 71.1779 45.1501 71.0755 45.1933C70.972 45.2369 70.877 45.25 70.8119 45.25V41.25C69.8981 41.25 69.0775 41.606 68.4477 42.2358L71.2761 45.0642ZM116.527 64.6L115.113 63.1858L115.113 63.1858L116.527 64.6ZM104.827 64.6L106.241 63.1858L106.241 63.1858L104.827 64.6ZM104.427 43.45H106.427V39.3927L103.209 41.8637L104.427 43.45ZM98.8271 47.75L100.027 49.35L100.036 49.3432L100.045 49.3363L98.8271 47.75ZM96.9271 47.35L95.344 48.5721L95.3492 48.5789L95.3545 48.5856L96.9271 47.35ZM92.5271 41.65L90.7907 42.6423L90.8594 42.7625L90.944 42.8721L92.5271 41.65ZM92.9771 39.7L94.0253 41.4033L94.1176 41.3465L94.2032 41.2801L92.9771 39.7ZM105.027 30.35L103.88 28.7115L103.84 28.7397L103.801 28.7699L105.027 30.35ZM116.527 30.4L115.113 31.8142L115.113 31.8142L116.527 30.4ZM114.927 31.35V63.65H118.927V31.35H114.927ZM114.927 63.65C114.927 63.5849 114.94 63.4899 114.984 63.3864C115.027 63.284 115.081 63.2175 115.113 63.1858L117.941 66.0142C118.571 65.3844 118.927 64.5638 118.927 63.65H114.927ZM115.113 63.1858C115.145 63.1541 115.211 63.0998 115.314 63.0567C115.417 63.0131 115.512 63 115.577 63V67C116.491 67 117.312 66.644 117.941 66.0142L115.113 63.1858ZM115.577 63H105.777V67H115.577V63ZM105.777 63C105.842 63 105.937 63.0131 106.041 63.0567C106.143 63.0998 106.21 63.1541 106.241 63.1858L103.413 66.0142C104.043 66.644 104.863 67 105.777 67V63ZM106.241 63.1858C106.273 63.2175 106.327 63.284 106.37 63.3864C106.414 63.4899 106.427 63.5849 106.427 63.65H102.427C102.427 64.5638 102.783 65.3844 103.413 66.0142L106.241 63.1858ZM106.427 63.65V43.45H102.427V63.65H106.427ZM103.209 41.8637L97.6091 46.1637L100.045 49.3363L105.645 45.0363L103.209 41.8637ZM97.6271 46.15C97.6564 46.128 97.705 46.0992 97.7697 46.0776C97.8344 46.0561 97.8905 46.05 97.9271 46.05V50.05C98.6932 50.05 99.4143 49.8096 100.027 49.35L97.6271 46.15ZM97.9271 46.05C98.3106 46.05 98.5469 46.2 98.5991 46.2365C98.6486 46.2712 98.6121 46.2572 98.4998 46.1144L95.3545 48.5856C95.7644 49.1074 96.6223 50.05 97.9271 50.05V46.05ZM98.5103 46.1279L94.1103 40.4279L90.944 42.8721L95.344 48.5721L98.5103 46.1279ZM94.2636 40.6577C94.2458 40.6265 94.3271 40.7524 94.3271 41H90.3271C90.3271 41.6476 90.5418 42.2068 90.7907 42.6423L94.2636 40.6577ZM94.3271 41C94.3271 40.9379 94.3382 41.0001 94.2785 41.1194C94.2489 41.1787 94.2084 41.2383 94.1584 41.2921C94.1088 41.3455 94.061 41.3814 94.0253 41.4033L91.929 37.9967C90.7896 38.6978 90.3271 39.8515 90.3271 41H94.3271ZM94.2032 41.2801L106.253 31.9301L103.801 28.7699L91.7511 38.1199L94.2032 41.2801ZM106.174 31.9885C106.18 31.9842 106.181 31.9839 106.178 31.9857C106.174 31.9876 106.167 31.9905 106.159 31.9933C106.15 31.9962 106.141 31.9981 106.134 31.9991C106.127 32.0001 106.125 32 106.127 32V28C105.309 28 104.544 28.2472 103.88 28.7115L106.174 31.9885ZM106.127 32H115.577V28H106.127V32ZM115.577 32C115.512 32 115.417 31.9869 115.314 31.9433C115.211 31.9001 115.145 31.8459 115.113 31.8142L117.941 28.9858C117.312 28.356 116.491 28 115.577 28V32ZM115.113 31.8142C115.081 31.7825 115.027 31.716 114.984 31.6136C114.94 31.5101 114.927 31.4151 114.927 31.35H118.927C118.927 30.4362 118.571 29.6156 117.941 28.9858L115.113 31.8142ZM136.103 54.8L134.525 56.0279L134.525 56.0279L136.103 54.8ZM149.653 62L148.382 60.4561L148.373 60.4636L149.653 62ZM126.603 62L125.312 63.5275L125.322 63.5357L125.332 63.5439L126.603 62ZM126.753 33.05L128.007 34.6082L128.009 34.6065L126.753 33.05ZM149.503 33.05L148.239 34.5995L148.248 34.6074L148.258 34.6152L149.503 33.05ZM133.403 42.4V52.45H137.403V42.4H133.403ZM133.403 52.45C133.403 53.7389 133.718 54.991 134.525 56.0279L137.682 53.5721C137.555 53.409 137.403 53.0944 137.403 52.45H133.403ZM134.525 56.0279C135.442 57.2075 136.764 57.7 138.153 57.7V53.7C137.924 53.7 137.811 53.662 137.77 53.6437C137.738 53.6299 137.715 53.6148 137.682 53.5721L134.525 56.0279ZM138.153 57.7C139.543 57.7 140.865 57.2075 141.782 56.0279L138.625 53.5721C138.591 53.6148 138.568 53.6299 138.537 53.6437C138.495 53.662 138.382 53.7 138.153 53.7V57.7ZM141.782 56.0279C142.588 54.991 142.903 53.7389 142.903 52.45H138.903C138.903 53.0944 138.751 53.409 138.625 53.5721L141.782 56.0279ZM142.903 52.45V42.4H138.903V52.45H142.903ZM142.903 42.4C142.903 41.0824 142.632 39.7213 141.743 38.6706C140.799 37.5559 139.474 37.15 138.153 37.15V41.15C138.419 41.15 138.562 41.1897 138.623 41.2139C138.673 41.2334 138.682 41.2465 138.689 41.2544C138.717 41.287 138.903 41.551 138.903 42.4H142.903ZM138.153 37.15C136.833 37.15 135.507 37.5559 134.564 38.6706C133.675 39.7213 133.403 41.0824 133.403 42.4H137.403C137.403 41.551 137.59 41.287 137.618 41.2544C137.624 41.2465 137.634 41.2334 137.683 41.2139C137.745 41.1897 137.888 41.15 138.153 41.15V37.15ZM151.903 42.9V52.05H155.903V42.9H151.903ZM151.903 52.05C151.903 55.8665 150.672 58.5698 148.382 60.4561L150.925 63.5439C154.301 60.7635 155.903 56.8335 155.903 52.05H151.903ZM148.373 60.4636C146.037 62.4099 142.71 63.5 138.153 63.5V67.5C143.33 67.5 147.669 66.2568 150.934 63.5364L148.373 60.4636ZM138.153 63.5C133.598 63.5 130.248 62.4105 127.875 60.4561L125.332 63.5439C128.625 66.2562 132.975 67.5 138.153 67.5V63.5ZM127.894 60.4725C125.627 58.5562 124.403 55.8131 124.403 51.95H120.403C120.403 56.7536 121.979 60.7104 125.312 63.5275L127.894 60.4725ZM124.403 51.95V43H120.403V51.95H124.403ZM124.403 43C124.403 39.2 125.655 36.5003 128.007 34.6082L125.5 31.4918C122.051 34.2663 120.403 38.2 120.403 43H124.403ZM128.009 34.6065C130.509 32.59 133.832 31.5 138.153 31.5V27.5C133.142 27.5 128.865 28.7767 125.497 31.4934L128.009 34.6065ZM138.153 31.5C142.476 31.5 145.777 32.5903 148.239 34.5995L150.768 31.5005C147.43 28.7763 143.164 27.5 138.153 27.5V31.5ZM148.258 34.6152C150.649 36.5167 151.903 39.1868 151.903 42.9H155.903C155.903 38.1466 154.225 34.2499 150.748 31.4848L148.258 34.6152ZM172.627 54.8L171.048 56.0279L171.048 56.0279L172.627 54.8ZM186.177 62L184.905 60.4561L184.896 60.4636L186.177 62ZM163.127 62L161.836 63.5275L161.845 63.5357L161.855 63.5439L163.127 62ZM163.277 33.05L164.531 34.6082L164.533 34.6065L163.277 33.05ZM186.027 33.05L184.762 34.5995L184.772 34.6074L184.782 34.6152L186.027 33.05ZM169.927 42.4V52.45H173.927V42.4H169.927ZM169.927 52.45C169.927 53.7389 170.242 54.991 171.048 56.0279L174.205 53.5721C174.079 53.409 173.927 53.0944 173.927 52.45H169.927ZM171.048 56.0279C171.966 57.2075 173.287 57.7 174.677 57.7V53.7C174.448 53.7 174.335 53.662 174.293 53.6437C174.262 53.6299 174.239 53.6148 174.205 53.5721L171.048 56.0279ZM174.677 57.7C176.067 57.7 177.388 57.2075 178.305 56.0279L175.148 53.5721C175.115 53.6148 175.092 53.6299 175.06 53.6437C175.019 53.662 174.906 53.7 174.677 53.7V57.7ZM178.305 56.0279C179.112 54.991 179.427 53.7389 179.427 52.45H175.427C175.427 53.0944 175.275 53.409 175.148 53.5721L178.305 56.0279ZM179.427 52.45V42.4H175.427V52.45H179.427ZM179.427 42.4C179.427 41.0824 179.155 39.7213 178.266 38.6706C177.323 37.5559 175.997 37.15 174.677 37.15V41.15C174.942 41.15 175.085 41.1897 175.147 41.2139C175.196 41.2334 175.206 41.2465 175.212 41.2544C175.24 41.287 175.427 41.551 175.427 42.4H179.427ZM174.677 37.15C173.356 37.15 172.031 37.5559 171.087 38.6706C170.198 39.7213 169.927 41.0824 169.927 42.4H173.927C173.927 41.551 174.113 41.287 174.141 41.2544C174.148 41.2465 174.157 41.2334 174.207 41.2139C174.268 41.1897 174.411 41.15 174.677 41.15V37.15ZM188.427 42.9V52.05H192.427V42.9H188.427ZM188.427 52.05C188.427 55.8665 187.196 58.5698 184.905 60.4561L187.448 63.5439C190.824 60.7635 192.427 56.8335 192.427 52.05H188.427ZM184.896 60.4636C182.561 62.4099 179.233 63.5 174.677 63.5V67.5C179.854 67.5 184.193 66.2568 187.457 63.5364L184.896 60.4636ZM174.677 63.5C170.122 63.5 166.771 62.4105 164.398 60.4561L161.855 63.5439C165.149 66.2562 169.498 67.5 174.677 67.5V63.5ZM164.418 60.4725C162.151 58.5562 160.927 55.8131 160.927 51.95H156.927C156.927 56.7536 158.503 60.7104 161.836 63.5275L164.418 60.4725ZM160.927 51.95V43H156.927V51.95H160.927ZM160.927 43C160.927 39.2 162.179 36.5003 164.531 34.6082L162.023 31.4918C158.575 34.2663 156.927 38.2 156.927 43H160.927ZM164.533 34.6065C167.032 32.59 170.355 31.5 174.677 31.5V27.5C169.665 27.5 165.388 28.7767 162.021 31.4934L164.533 34.6065ZM174.677 31.5C178.999 31.5 182.3 32.5903 184.762 34.5995L187.291 31.5005C183.953 28.7763 179.688 27.5 174.677 27.5V31.5ZM184.782 34.6152C187.172 36.5167 188.427 39.1868 188.427 42.9H192.427C192.427 38.1466 190.748 34.2499 187.272 31.4848L184.782 34.6152ZM223.2 48.05L221.786 46.6358L221.755 46.6665L221.726 46.6986L223.2 48.05ZM211.55 64.6L210.136 66.0142L210.136 66.0142L211.55 64.6ZM207.7 48.1L206.231 46.7434L206.226 46.7486L207.7 48.1ZM206.75 64.6L208.164 66.0142L208.164 66.0142L206.75 64.6ZM195.85 64.6L197.264 63.1858L197.264 63.1858L195.85 64.6ZM195.85 39.4L197.264 40.8142L197.264 40.8142L195.85 39.4ZM206 39.4L204.586 40.8142L204.586 40.8142L206 39.4ZM206.4 42H204.4V47.8803L207.985 43.2194L206.4 42ZM209.25 39.65L208.272 37.9057L208.263 37.9106L209.25 39.65ZM221.25 42.6L219.436 43.4409L220.913 46.6286L222.9 43.7311L221.25 42.6ZM224.55 39.7L225.511 41.4542L225.527 41.4455L225.542 41.4365L224.55 39.7ZM235.5 41.35L234.01 42.6836L234.016 42.6908L234.023 42.6979L235.5 41.35ZM227 64.6L228.414 63.1858L228.414 63.1858L227 64.6ZM224.6 45.45C223.502 45.45 222.536 45.886 221.786 46.6358L224.614 49.4642C224.636 49.4429 224.648 49.4338 224.651 49.4319C224.653 49.4309 224.652 49.4313 224.65 49.4327C224.647 49.4341 224.643 49.4361 224.638 49.4383C224.633 49.4405 224.627 49.4426 224.621 49.4445C224.615 49.4464 224.61 49.4477 224.605 49.4487C224.595 49.4506 224.593 49.45 224.6 49.45V45.45ZM221.726 46.6986C220.891 47.6092 220.65 48.7827 220.65 49.85H224.65C224.65 49.5964 224.68 49.4513 224.7 49.3844C224.719 49.3251 224.722 49.3498 224.675 49.4014L221.726 46.6986ZM220.65 49.85V63.65H224.65V49.85H220.65ZM220.65 63.65C220.65 63.5849 220.663 63.4899 220.707 63.3864C220.75 63.284 220.804 63.2175 220.836 63.1858L223.664 66.0142C224.294 65.3844 224.65 64.5638 224.65 63.65H220.65ZM220.836 63.1858C220.868 63.1541 220.934 63.0998 221.037 63.0567C221.14 63.0131 221.235 63 221.3 63V67C222.214 67 223.035 66.644 223.664 66.0142L220.836 63.1858ZM221.3 63H212.5V67H221.3V63ZM212.5 63C212.565 63 212.66 63.0131 212.764 63.0567C212.866 63.0998 212.933 63.1541 212.964 63.1858L210.136 66.0142C210.766 66.644 211.586 67 212.5 67V63ZM212.964 63.1858C212.996 63.2175 213.05 63.284 213.093 63.3864C213.137 63.4899 213.15 63.5849 213.15 63.65H209.15C209.15 64.5638 209.506 65.3844 210.136 66.0142L212.964 63.1858ZM213.15 63.65V50.2H209.15V63.65H213.15ZM213.15 50.2C213.15 49.1004 212.961 47.9144 212.268 46.9612C211.488 45.8896 210.328 45.45 209.15 45.45V49.45C209.256 49.45 209.253 49.4679 209.192 49.44C209.12 49.4071 209.062 49.3536 209.033 49.3138C209.013 49.2861 209.045 49.3175 209.081 49.4681C209.118 49.62 209.15 49.8564 209.15 50.2H213.15ZM209.15 45.45C208 45.45 206.992 45.9188 206.231 46.7434L209.17 49.4566C209.19 49.4349 209.201 49.4268 209.201 49.4265C209.201 49.4263 209.2 49.4276 209.196 49.4298C209.192 49.432 209.187 49.4347 209.181 49.4375C209.175 49.4403 209.168 49.4429 209.161 49.445C209.155 49.4471 209.149 49.4485 209.145 49.4494C209.136 49.4512 209.137 49.45 209.15 49.45V45.45ZM206.226 46.7486C205.417 47.6307 205.15 48.7448 205.15 49.8H209.15C209.15 49.5959 209.176 49.4853 209.191 49.4406C209.203 49.4036 209.203 49.4199 209.175 49.4514L206.226 46.7486ZM205.15 49.8V63.65H209.15V49.8H205.15ZM205.15 63.65C205.15 63.5849 205.163 63.4899 205.207 63.3864C205.25 63.284 205.304 63.2175 205.336 63.1858L208.164 66.0142C208.794 65.3844 209.15 64.5638 209.15 63.65H205.15ZM205.336 63.1858C205.368 63.1541 205.434 63.0998 205.537 63.0567C205.64 63.0131 205.735 63 205.8 63V67C206.714 67 207.535 66.644 208.164 66.0142L205.336 63.1858ZM205.8 63H196.8V67H205.8V63ZM196.8 63C196.865 63 196.96 63.0131 197.064 63.0567C197.166 63.0998 197.233 63.1541 197.264 63.1858L194.436 66.0142C195.066 66.644 195.886 67 196.8 67V63ZM197.264 63.1858C197.296 63.2175 197.35 63.284 197.393 63.3864C197.437 63.4899 197.45 63.5849 197.45 63.65H193.45C193.45 64.5638 193.806 65.3844 194.436 66.0142L197.264 63.1858ZM197.45 63.65V40.35H193.45V63.65H197.45ZM197.45 40.35C197.45 40.4151 197.437 40.5101 197.393 40.6136C197.35 40.716 197.296 40.7825 197.264 40.8142L194.436 37.9858C193.806 38.6156 193.45 39.4362 193.45 40.35H197.45ZM197.264 40.8142C197.233 40.8459 197.166 40.9001 197.064 40.9433C196.96 40.9869 196.865 41 196.8 41V37C195.886 37 195.066 37.356 194.436 37.9858L197.264 40.8142ZM196.8 41H205.05V37H196.8V41ZM205.05 41C204.985 41 204.89 40.9869 204.787 40.9433C204.684 40.9001 204.618 40.8459 204.586 40.8142L207.414 37.9858C206.785 37.356 205.964 37 205.05 37V41ZM204.586 40.8142C204.554 40.7825 204.5 40.716 204.457 40.6136C204.413 40.5101 204.4 40.4151 204.4 40.35H208.4C208.4 39.4362 208.044 38.6156 207.414 37.9858L204.586 40.8142ZM204.4 40.35V42H208.4V40.35H204.4ZM207.985 43.2194C208.449 42.6169 209.17 41.995 210.237 41.3894L208.263 37.9106C206.863 38.705 205.685 39.6497 204.815 40.7806L207.985 43.2194ZM210.229 41.3943C211.271 40.8093 212.463 40.5 213.85 40.5V36.5C211.837 36.5 209.962 36.9573 208.272 37.9057L210.229 41.3943ZM213.85 40.5C215.443 40.5 216.62 40.7975 217.481 41.2744C218.317 41.7378 218.968 42.4312 219.436 43.4409L223.065 41.7591C222.266 40.0355 221.05 38.6789 219.419 37.7756C217.814 36.8858 215.924 36.5 213.85 36.5V40.5ZM222.9 43.7311C223.5 42.8548 224.35 42.0896 225.511 41.4542L223.59 37.9458C221.95 38.8437 220.6 40.0118 219.601 41.4689L222.9 43.7311ZM225.542 41.4365C226.664 40.7958 227.774 40.5 228.9 40.5V36.5C227.026 36.5 225.237 37.0042 223.558 37.9635L225.542 41.4365ZM228.9 40.5C231.069 40.5 232.714 41.2351 234.01 42.6836L236.991 40.0164C234.887 37.6649 232.131 36.5 228.9 36.5V40.5ZM234.023 42.6979C235.293 44.09 236.1 46.354 236.1 49.85H240.1C240.1 45.8126 239.174 42.41 236.978 40.0021L234.023 42.6979ZM236.1 49.85V63.65H240.1V49.85H236.1ZM236.1 63.65C236.1 63.5849 236.113 63.4899 236.157 63.3864C236.2 63.284 236.254 63.2175 236.286 63.1858L239.114 66.0142C239.744 65.3844 240.1 64.5638 240.1 63.65H236.1ZM236.286 63.1858C236.318 63.1541 236.384 63.0998 236.487 63.0567C236.59 63.0131 236.685 63 236.75 63V67C237.664 67 238.485 66.644 239.114 66.0142L236.286 63.1858ZM236.75 63H227.95V67H236.75V63ZM227.95 63C228.015 63 228.11 63.0131 228.214 63.0567C228.316 63.0998 228.383 63.1541 228.414 63.1858L225.586 66.0142C226.216 66.644 227.036 67 227.95 67V63ZM228.414 63.1858C228.446 63.2175 228.5 63.284 228.543 63.3864C228.587 63.4899 228.6 63.5849 228.6 63.65H224.6C224.6 64.5638 224.956 65.3844 225.586 66.0142L228.414 63.1858ZM228.6 63.65V50.2H224.6V63.65H228.6ZM228.6 50.2C228.6 49.1004 228.411 47.9144 227.718 46.9612C226.938 45.8896 225.778 45.45 224.6 45.45V49.45C224.706 49.45 224.703 49.4679 224.642 49.44C224.57 49.4071 224.512 49.3536 224.483 49.3138C224.463 49.2861 224.495 49.3175 224.531 49.4681C224.568 49.62 224.6 49.8564 224.6 50.2H228.6ZM256.462 57L254.91 58.2612L254.918 58.2708L254.926 58.2804L256.462 57ZM251.662 55.45L251.284 57.4138L251.295 57.416L251.307 57.4181L251.662 55.45ZM244.912 52.7L243.678 54.2737L243.695 54.287L243.712 54.3L244.912 52.7ZM245.762 41.05L244.562 39.45L244.562 39.45L245.762 41.05ZM264.412 40.9L265.501 39.2221L265.501 39.2221L264.412 40.9ZM267.762 46.7L266.257 45.383L266.208 45.4397L266.162 45.5L267.762 46.7ZM256.762 46.3L255.586 47.9175L255.586 47.9175L256.762 46.3ZM254.212 47.1L252.676 48.3804L252.688 48.3952L252.701 48.4099L254.212 47.1ZM259.662 48.55L259.374 50.5291L259.374 50.5291L259.662 48.55ZM266.812 51.65L265.383 53.0492L265.398 53.0643L265.413 53.079L266.812 51.65ZM265.562 63.25L264.496 61.5579L264.496 61.5579L265.562 63.25ZM248.912 64.75L248.354 66.6704L248.354 66.6704L248.912 64.75ZM244.712 62.75L245.987 61.2092L245.985 61.2069L244.712 62.75ZM242.212 57.4L240.707 56.083L240.707 56.083L242.212 57.4ZM253.562 57.8L252.386 59.4175L252.427 59.4474L252.47 59.4752L253.562 57.8ZM258.712 57.8C258.712 57.1327 258.541 56.37 257.999 55.7196L254.926 58.2804C254.829 58.1647 254.772 58.0449 254.741 57.9465C254.712 57.8537 254.712 57.7978 254.712 57.8H258.712ZM258.015 55.7388C257.654 55.2953 257.193 55.0106 256.836 54.8261C256.451 54.6271 256.013 54.458 255.552 54.3093C254.63 54.0115 253.439 53.7387 252.018 53.4819L251.307 57.4181C252.652 57.6613 253.645 57.8968 254.323 58.1157C254.662 58.2253 254.878 58.3166 255.001 58.3802C255.152 58.4582 255.054 58.438 254.91 58.2612L258.015 55.7388ZM252.041 53.4862C249.486 52.9936 247.541 52.1718 246.112 51.1L243.712 54.3C245.75 55.8282 248.305 56.8397 251.284 57.4138L252.041 53.4862ZM246.147 51.1263C244.98 50.2117 244.362 48.9695 244.362 47.15H240.362C240.362 50.0638 241.444 52.5216 243.678 54.2737L246.147 51.1263ZM244.362 47.15C244.362 45.5405 245.088 44.0561 246.962 42.65L244.562 39.45C241.904 41.4439 240.362 44.0262 240.362 47.15H244.362ZM246.962 42.65C248.779 41.2876 251.361 40.5 254.912 40.5V36.5C250.797 36.5 247.279 37.4124 244.562 39.45L246.962 42.65ZM254.912 40.5C258.512 40.5 261.269 41.2449 263.324 42.5779L265.501 39.2221C262.622 37.3551 259.046 36.5 254.912 36.5V40.5ZM263.324 42.5779C265.668 44.0985 266.112 45.1937 266.112 45.75H270.112C270.112 43.0396 268.09 40.9015 265.501 39.2221L263.324 42.5779ZM266.112 45.75C266.112 45.7178 266.118 45.6526 266.148 45.5711C266.179 45.4886 266.221 45.4244 266.257 45.383L269.267 48.017C269.832 47.3721 270.112 46.5827 270.112 45.75H266.112ZM266.162 45.5C266.207 45.4401 266.309 45.3286 266.484 45.2353C266.665 45.1384 266.854 45.1 267.012 45.1V49.1C268.018 49.1 268.833 48.6059 269.362 47.9L266.162 45.5ZM267.012 45.1H258.612V49.1H267.012V45.1ZM258.612 45.1C258.712 45.1 258.708 45.1244 258.569 45.0643C258.433 45.0056 258.225 44.8905 257.939 44.6825L255.586 47.9175C256.418 48.5227 257.465 49.1 258.612 49.1V45.1ZM257.939 44.6825C257.517 44.3762 257.091 44.1036 256.672 43.9004C256.284 43.7122 255.735 43.5 255.112 43.5V47.5C254.968 47.5 254.878 47.4749 254.863 47.4704C254.845 47.4651 254.864 47.4691 254.927 47.4996C255.058 47.5631 255.274 47.6905 255.586 47.9175L257.939 44.6825ZM255.112 43.5C254.559 43.5 253.788 43.5851 253.108 44.0582C252.296 44.623 251.962 45.4863 251.962 46.3H255.962C255.962 46.4061 255.943 46.5953 255.838 46.8142C255.728 47.043 255.565 47.2217 255.392 47.3418C255.095 47.5482 254.899 47.5 255.112 47.5V43.5ZM251.962 46.3C251.962 46.9673 252.134 47.73 252.676 48.3804L255.749 45.8196C255.845 45.9353 255.903 46.0551 255.934 46.1534C255.948 46.2001 255.955 46.2374 255.959 46.2624C255.961 46.2748 255.961 46.2843 255.962 46.2906C255.962 46.2937 255.962 46.2961 255.962 46.2976C255.962 46.2984 255.962 46.299 255.962 46.2994C255.962 46.2996 255.962 46.2998 255.962 46.2999C255.962 46.2999 255.962 46.2999 255.962 46.3C255.962 46.3 255.962 46.3 255.962 46.3C255.962 46.2998 255.962 46.3002 255.962 46.3C255.962 46.2998 255.962 46.3002 255.962 46.3H251.962ZM252.701 48.4099C253.107 48.8786 253.636 49.1474 253.996 49.3045C254.405 49.4833 254.879 49.6355 255.386 49.7703C256.402 50.0408 257.743 50.2913 259.374 50.5291L259.951 46.5709C258.381 46.342 257.214 46.1175 256.414 45.9047C256.012 45.7978 255.751 45.7063 255.598 45.6392C255.394 45.5505 255.534 45.5714 255.724 45.7901L252.701 48.4099ZM259.374 50.5291C262.326 50.9597 264.233 51.8741 265.383 53.0492L268.241 50.2507C266.259 48.2259 263.398 47.0737 259.951 46.5709L259.374 50.5291ZM265.413 53.079C266.695 54.3341 267.212 55.5903 267.212 56.9H271.212C271.212 54.3431 270.13 52.0992 268.212 50.221L265.413 53.079ZM267.212 56.9C267.212 58.8608 266.394 60.3621 264.496 61.5579L266.629 64.9421C269.597 63.0713 271.212 60.3392 271.212 56.9H267.212ZM264.496 61.5579C262.513 62.8077 259.494 63.55 255.212 63.55V67.55C259.864 67.55 263.745 66.759 266.629 64.9421L264.496 61.5579ZM255.212 63.55C252.991 63.55 251.085 63.2993 249.471 62.8296L248.354 66.6704C250.406 67.2674 252.7 67.55 255.212 67.55V63.55ZM249.471 62.8296C247.776 62.3367 246.663 61.7685 245.987 61.2092L243.437 64.2908C244.695 65.3315 246.382 66.0967 248.354 66.6704L249.471 62.8296ZM245.985 61.2069C244.198 59.7336 243.862 58.7813 243.862 58.35H239.862C239.862 60.652 241.427 62.6331 243.44 64.2931L245.985 61.2069ZM243.862 58.35C243.862 58.3822 243.857 58.4474 243.826 58.5289C243.796 58.6114 243.754 58.6756 243.717 58.717L240.707 56.083C240.143 56.7279 239.862 57.5173 239.862 58.35H243.862ZM243.717 58.717C243.676 58.7639 243.59 58.8444 243.451 58.9096C243.31 58.9763 243.171 59 243.062 59V55C242.112 55 241.293 55.4133 240.707 56.083L243.717 58.717ZM243.062 59H251.762V55H243.062V59ZM251.762 59C251.626 59 251.609 58.9649 251.75 59.0276C251.884 59.0869 252.093 59.2046 252.386 59.4175L254.739 56.1825C253.936 55.5988 252.896 55 251.762 55V59ZM252.47 59.4752C253.444 60.1107 254.538 60.55 255.712 60.55V56.55C255.553 56.55 255.214 56.4893 254.655 56.1248L252.47 59.4752ZM255.712 60.55C256.238 60.55 256.997 60.4616 257.662 59.9625C258.436 59.3823 258.712 58.538 258.712 57.8H254.712C254.712 57.7049 254.728 57.5273 254.822 57.3158C254.921 57.0928 255.077 56.9014 255.262 56.7625C255.594 56.5134 255.853 56.55 255.712 56.55V60.55Z" fill="black"/>
<defs>
<linearGradient id="paint0_linear" x1="99.9224" y1="149.826" x2="47.6761" y2="9.23683" gradientUnits="userSpaceOnUse">
<stop stop-color="#EFC492"/>
<stop offset="1" stop-color="#B76A11"/>
</linearGradient>
</defs>
</svg>
